<svg id="Layer_1" data-name="Layer 1" xmlns="http://www.w3.org/2000/svg" viewBox="0 0 1880.15 457.2"><defs><style>.cls-1{opacity:0.6;}.cls-2{fill:#855f99;}</style></defs><g id="Icons" class="cls-1"><g id="Group_1031" data-name="Group 1031"><g id="Group_466" data-name="Group 466"><g id="Group_357" data-name="Group 357"><g id="Group_356" data-name="Group 356"><g id="Group_355" data-name="Group 355"><g id="Group_354" data-name="Group 354"><g id="Group_353" data-name="Group 353"><path id="Path_20092" data-name="Path 20092" class="cls-2" d="M495.73,45.09H422l1.09-.58c7.19-3.81,12.91-10,18.45-16,8.42-9.11,16.38-17.71,28.68-17.71A16.42,16.42,0,0,1,486.85,27c0,.15,0,.3,0,.45l0,.67-.48-.34a6.88,6.88,0,0,0-9.44,1.49,6.47,6.47,0,0,0-1.28,3.85c0,10,19.92,11.35,20.12,11.36Zm-71.28-.62H491a44.61,44.61,0,0,1-5.59-1.35C478.6,41,475,37.5,475,33.11a7.31,7.31,0,0,1,7.39-7.2A7.45,7.45,0,0,1,486.22,27a15.82,15.82,0,0,0-16-15.54c-12,0-19.88,8.51-28.21,17.51-5.3,5.74-10.78,11.66-17.57,15.54Z" transform="translate(-39.85 -10.81)"/></g></g></g></g></g><g id="Group_363" data-name="Group 363"><g id="Group_362" data-name="Group 362"><g id="Group_361" data-name="Group 361"><g id="Group_360" data-name="Group 360"><g id="Group_359" data-name="Group 359"><g id="Group_358" data-name="Group 358"><path id="Path_20093" data-name="Path 20093" class="cls-2" d="M681.57,388.12h-3.82l.26-25.29-14.33,12,10.9-18.69-1.66-19.83,8.83,18.12L702.19,364l-20.9-2.35Zm-3.18-.61h2.54l-.27-26.61,17.88,2-16.8-7.86-1.81,6.17h-.53L675,356.69,666,372l12.65-10.55Zm-2.88-31.17,4,4.11,1.58-5.39Zm-1.68-16.78,1.36,16.23,5.88-1.36Z" transform="translate(-39.85 -10.81)"/></g></g></g></g></g></g><g id="Group_368" data-name="Group 368"><g id="Group_367" data-name="Group 367"><g id="Group_366" data-name="Group 366"><g id="Group_365" data-name="Group 365"><g id="Group_364" data-name="Group 364"><path id="Path_20094" data-name="Path 20094" class="cls-2" d="M1267,191.14v4.19h-3.94v1H1267v5.53h-1.85V203H1267v5.51h-3.94v1.09H1267v5.54h-1.85v1H1267v5.6h-3.94v1H1267v5a7,7,0,0,1,2.61,9.78,7.44,7.44,0,0,1-10,2.53,7,7,0,0,1-2.6-9.77,7.28,7.28,0,0,1,2.6-2.54v-36.6H1267m.63-.62h-8.69V227.4a7.64,7.64,0,0,0-2.32,10.73,8.08,8.08,0,0,0,11,2.27,7.63,7.63,0,0,0,2.33-10.73,7.76,7.76,0,0,0-2.33-2.27Z" transform="translate(-39.85 -10.81)"/></g></g></g></g></g><g id="Group_384" data-name="Group 384"><g id="Group_373" data-name="Group 373"><g id="Group_372" data-name="Group 372"><g id="Group_371" data-name="Group 371"><g id="Group_370" data-name="Group 370"><g id="Group_369" data-name="Group 369"><path id="Path_20095" data-name="Path 20095" class="cls-2" d="M1410.89,386.17v2.09l1.66-.93.71,1.2-2.37,1.33v4.23l3.76-2.11v-2.67h1.43v1.86l1.85-1,.71,1.2-1.85,1.05,1.66.93-.71,1.2-2.38-1.33-3.76,2.11,3.76,2.12,2.38-1.33.71,1.2-1.66.93,1.85,1-.71,1.2-1.85-1v1.87h-1.43v-2.67l-3.76-2.12v4.24l2.37,1.33-.71,1.2-1.66-.93v2.09h-1.42v-2.09l-1.66.93-.71-1.2,2.37-1.33v-4.24l-3.76,2.12v2.67h-1.43v-1.87l-1.85,1-.71-1.2,1.85-1.05-1.66-.93.72-1.2,2.37,1.33,3.76-2.12-3.76-2.11-2.37,1.33-.72-1.2,1.66-.93-1.85-1.05.71-1.2,1.85,1.05v-1.87h1.43V392l3.76,2.12v-4.23l-2.37-1.34.71-1.2,1.66.94v-2.09h1.42m.63-.61h-2.68v1.63l-.71-.4-.55-.31-.32.54-.71,1.2-.28.47h-2.62v1.42l-.91-.51-.54-.31-.32.53-.71,1.2-.32.53.55.31.91.51-.71.4-.55.31.32.53.71,1.2.28.48-.28.48-.71,1.2-.32.53.55.31.71.4-.91.51-.55.31.32.53.71,1.2.32.53.54-.31.91-.51v1.42h2.62l.28.47.71,1.2.32.53.54-.3.72-.4V405h2.68v-1.63l.72.4.54.3.32-.53.71-1.2.28-.47h2.62v-1.42l.91.51.54.31.32-.53.71-1.2.32-.53-.55-.31-.91-.51.71-.4.55-.31L1419,397l-.71-1.2-.28-.48.28-.48.71-1.2.32-.53-.55-.31-.71-.4.91-.51.55-.31-.32-.53-.71-1.2-.32-.53-.54.31-.91.51V388.7h-2.62l-.28-.48-.71-1.2-.32-.53-.54.31-.72.4v-1.64Zm-5.18,6.06v-2.81l.44.25,2.06,1.15V393l-2.5-1.41Zm5.18-1.41,2.06-1.15.45-.25v2.81l-2.51,1.41Zm-9,5.08.45-.25,2-1.16,2.51,1.41L1405,396.7l-2-1.16-.45-.25Zm10.37,0,2.51-1.41,2.05,1.16.45.25-.45.25-2.05,1.16-2.51-1.41Zm-1.34,5.08v-2.81L1414,399v2.82l-.45-.26-2.06-1.15Zm-5.18-1.41,2.5-1.41v2.82l-2.06,1.15-.44.25Z" transform="translate(-39.85 -10.81)"/></g></g></g></g></g><g id="Group_378" data-name="Group 378"><g id="Group_377" data-name="Group 377"><g id="Group_376" data-name="Group 376"><g id="Group_375" data-name="Group 375"><g id="Group_374" data-name="Group 374"><path id="Path_20096" data-name="Path 20096" class="cls-2" d="M1402.48,358.54l1,.81-2.91,3.36v3.41l3-1.71,1.53-4.13,1.21.43-1,2.74,1.1-.62.64,1.08-1.1.62,3,.51-.23,1.23-4.44-.77-3,1.7,3,1.71,4.44-.77.23,1.23-3,.51,1.1.62-.64,1.08-1.1-.62,1,2.74-1.2.42-1.54-4.13-3-1.71v3.42l2.91,3.36-1,.8-1.93-2.23v1.24h-1.28v-1.24l-1.93,2.23-1-.8,2.91-3.36v-3.42l-3,1.71-1.53,4.13-1.21-.42,1-2.74-1.1.62-.64-1.08,1.1-.62-2.95-.51.23-1.23,4.45.77,3-1.71-3-1.7-4.45.77-.22-1.23,2.94-.51-1.1-.62.64-1.08,1.1.62-1-2.74,1.21-.43,1.53,4.13,3,1.71v-3.41l-2.91-3.36,1-.81,1.93,2.23v-1.23h1.29v1.23l1.92-2.23m-.07-.86-.41.47-.82.94v-.17h-2.54v.17l-.81-.94-.41-.47-.48.39-1,.81-.48.39.4.47,2.76,3.19v2.13l-1.89-1.07-1.46-3.92-.21-.57-.6.2-1.2.43-.59.21.21.58.43,1.15-.15-.08-.31.53-.64,1.08-.32.53.15.08-1.24.22-.62.11.11.6.22,1.23.11.6.62-.1,4.22-.73,1.89,1.06-1.89,1.06-4.22-.73-.62-.1-.11.6-.22,1.23-.11.6.62.11,1.24.22-.15.08.32.53.64,1.08.31.53.15-.08-.43,1.15-.21.58.59.21,1.21.43.59.2.21-.57,1.46-3.92,1.89-1.06v2.12l-2.76,3.19-.4.47.48.4,1,.8.48.4.41-.47.81-.95v.17h2.54v-.16l.81.94.41.47.48-.39,1-.81.48-.39-.4-.47-2.76-3.2v-2.13l1.89,1.06,1.46,3.92.22.58.59-.21,1.2-.42.6-.21-.22-.58-.43-1.15.15.08.32-.53.64-1.08.31-.53-.15-.09L1409,370l.62-.11-.11-.61-.23-1.22-.11-.61-.62.11-4.22.73-1.89-1.06,1.89-1.07,4.22.73.62.11.11-.6.23-1.23.11-.6-.62-.11-1.25-.22.15-.08-.31-.53-.64-1.08-.32-.54-.15.09.43-1.16.22-.57-.6-.21-1.2-.43-.59-.21-.22.58-1.46,3.92-1.89,1.07v-2.13l2.76-3.19.4-.47-.48-.4-1-.8-.48-.4Z" transform="translate(-39.85 -10.81)"/></g></g></g></g></g><g id="Group_383" data-name="Group 383"><g id="Group_382" data-name="Group 382"><g id="Group_381" data-name="Group 381"><g id="Group_380" data-name="Group 380"><g id="Group_379" data-name="Group 379"><path id="Path_20097" data-name="Path 20097" class="cls-2" d="M1429.1,365.71v3.9l1.43-2.13,1.07.68-2.5,3.72v1.91l1.69-1,2.06-4,1.14.57-1.17,2.27,3.47-1.95.64,1.08-3.47,1.95,2.61.14-.07,1.25-4.57-.25-1.69.95,1.7,1,4.56-.26.07,1.25-2.61.14,3.47,2-.64,1.08-3.47-1.95,1.17,2.28-1.14.56-2.06-4-1.69-1v1.91l2.5,3.72-1.07.68-1.43-2.13V384h-1.29v-3.91l-1.43,2.13-1.07-.68,2.5-3.72V376l-1.69.95-2.06,4-1.14-.56,1.17-2.28-3.47,1.95-.64-1.08,3.47-2-2.61-.14.07-1.25,4.56.25,1.7-.95-1.69-.95-4.57.25-.07-1.25,2.61-.14-3.47-1.95.64-1.08,3.47,1.95-1.17-2.28,1.14-.56,2,4,1.7,1v-1.91l-2.5-3.72,1.07-.68,1.43,2.13v-3.9h1.29m.63-.62h-2.54v2.46l-.28-.41-.35-.51-.52.34-1.07.68-.53.34.34.51,2.41,3.57v.66l-.6-.33-2-3.82-.29-.54-.56.27-1.14.56-.57.28.29.55.22.44-1.64-.93-.54-.3-.32.53-.64,1.08-.32.53.55.31,1.64.92-.5,0-.63,0,0,.61.07,1.25,0,.61.63,0,4.38-.24.59.33-.59.33L1421,375l-.63,0,0,.61-.07,1.25,0,.61.63,0,.5,0-1.64.93-.54.3.31.54.64,1.08.32.53.54-.31,1.64-.92-.22.44-.29.54.57.28,1.14.56.56.28.29-.55,2-3.81.59-.33v.66l-2.4,3.56-.35.52.53.33,1.07.69.53.33.34-.51.28-.41v2.46h2.54v-2.46l.28.41.34.51.53-.33,1.07-.69.53-.33-.35-.52-2.4-3.56V377l.59.33,2,3.81.28.55.56-.28,1.15-.56.56-.28-.29-.54-.22-.44,1.64.92.54.31.32-.53.64-1.08.32-.54-.55-.3-1.64-.93.5,0,.63,0,0-.61-.07-1.25,0-.61-.63,0-4.37.24-.6-.33.6-.33,4.37.24.63,0,0-.61.08-1.25,0-.61-.63,0-.5,0,1.64-.92.55-.31-.32-.53-.64-1.08-.31-.53-.55.3-1.64.93.22-.44.29-.55-.56-.28-1.15-.56-.56-.27-.28.54-2,3.81-.6.33v-.66l2.4-3.56.35-.52-.53-.33-1.07-.69-.53-.33-.34.51-.28.41v-2.46Z" transform="translate(-39.85 -10.81)"/></g></g></g></g></g></g><g id="Group_405" data-name="Group 405"><g id="Group_389" data-name="Group 389"><g id="Group_388" data-name="Group 388"><g id="Group_387" data-name="Group 387"><g id="Group_386" data-name="Group 386"><g id="Group_385" data-name="Group 385"><path id="Path_20098" data-name="Path 20098" class="cls-2" d="M50.57,241.68l3.28,9.14,7.11,0,3.29-9.16,1.24.15.83,9.18,7.93,3.59L74,255.79H65.12l-3.78,13,2.57,6.45-.07,0,.1.08,3.26,16.32-1.18.42-7.09-12.57H55.79L48.7,292.09l-1.18-.44,3.78-16.31.05,0h0L53.44,269l-4-13.24H40.84l-.28-1.18,7.65-3.53,1.12-9.26,1.24-.14m2,9.14-2.24-6.19-.75,6.18h3m12.5,0-.55-6-2.16,6H65m-3,2.94,2.29-1.75H62v1.75m-4.62.63,2.47-2.38H54.94l2.47,2.38m-4.63-.75v-1.63H50.93l1.85,1.63m-2.37.86h1.45l-2-1.71.51,1.71m18.37,0h2.3l-3.78-1.71,1.48,1.71m-9.67,0h1.65V253l-1.66,1.59m-5,0H55.7L54.06,253v1.57m-10.42,0h1.93L47,253l-3.36,1.57m3.64,0h1.8l-.45-1.49-1.35,1.49m18.19,0h1.64l-1.22-1.41-.41,1.41m-2.35,0h1l.29-1-1.3,1M57.35,264.7l5.42-5.41,1-3.5h-13l1,3.49,5.52,5.42m-3,3,2.12-2.12-3.89-3.79,1.77,5.91m6,0,1.69-5.84-3.79,3.78,2.1,2.06M54.78,269H60l0-.07-2.58-2.52-2.61,2.6m2.57,5.1,2.18-3.86H55.18l2.17,3.86m1.07.69h4l-1.64-4.1-2.32,4.1m-5.62,0h3.5l-2.21-3.91-1.29,3.91m6.88,3.42h3.54l-.43-2.17H58.45l1.23,2.17m-7.75,0H55l1.23-2.17H52.44l-.51,2.17m4.56,0h1.74l-.87-1.54-.87,1.54m5.16,3.5h2.28l-.45-2.25H60.39l1.27,2.25m-10.54,0h2l1.27-2.25H51.65l-.53,2.25M65.17,288l-1-5H62.36l2.81,5m-15.4-.38L52.36,283H50.84l-1.07,4.59M63.83,241l-.17.47-3.14,8.75-6.22,0-3.13-8.73L51,241l-.49.05-1.24.13-.49.06-.06.48-1.08,8.93L40.31,254l-.46.21.11.48.28,1.19.11.48H49L52.79,269l-2.06,6.07-.2.59h.06L46.92,291.5l-.12.52.51.19,1.19.44.51.2.26-.47,6.91-12.25h2.39l6.91,12.25.26.46.51-.18,1.19-.42.5-.18-.1-.52-3.2-15.92h0l-.08-.29,0-.1,0-.21,0,0L62,268.76l3.59-12.36h8.89l.11-.48.27-1.19.11-.48-.46-.21-7.6-3.44-.79-8.82-.05-.5-.5-.06-1.25-.15-.5-.06Zm-13.58,9.18.34-2.87,1,2.88Zm13,0,.9-2.52.23,2.52Zm-6.73,2.42h1.87l-.93.91-.94-.91Zm-4.85,3.74H63L62.22,259l-4.87,4.85-5-4.86-.77-2.56Zm3,10.11-.78-2.61,1.71,1.67Zm4.48-.93,1.63-1.63L60,266.46Zm-2.86,2.85,1.11-1.11,1.14,1.11Zm0,2.48h2.23l-1.12,2-1.11-2Zm3.25,3.32,1.15-2,.82,2Zm-5.82,0,.58-1.75,1,1.75Zm5.85,2.48h2.75l.19.94H60.05l-.54-.94Zm-6.58,0H55.2l-.54.94H52.72Zm8.51,3.42H63l.2,1H62l-.58-1Zm-9.3,0h1.12l-.58,1h-.78l.24-1Zm11.28,3.5h.23l.12.63Z" transform="translate(-39.85 -10.81)"/></g></g></g></g></g><g id="Group_394" data-name="Group 394"><g id="Group_393" data-name="Group 393"><g id="Group_392" data-name="Group 392"><g id="Group_391" data-name="Group 391"><g id="Group_390" data-name="Group 390"><path id="Path_20099" data-name="Path 20099" class="cls-2" d="M73.44,256.14v2.72H72.05v-2.72h1.39m.63-.61H71.42v4h2.65Z" transform="translate(-39.85 -10.81)"/></g></g></g></g></g><g id="Group_399" data-name="Group 399"><g id="Group_398" data-name="Group 398"><g id="Group_397" data-name="Group 397"><g id="Group_396" data-name="Group 396"><g id="Group_395" data-name="Group 395"><path id="Path_20100" data-name="Path 20100" class="cls-2" d="M58.39,256.14v2.72H57v-2.72h1.38m.63-.61H56.38v4H59Z" transform="translate(-39.85 -10.81)"/></g></g></g></g></g><g id="Group_404" data-name="Group 404"><g id="Group_403" data-name="Group 403"><g id="Group_402" data-name="Group 402"><g id="Group_401" data-name="Group 401"><g id="Group_400" data-name="Group 400"><path id="Path_20101" data-name="Path 20101" class="cls-2" d="M43.11,256.14v2.72H41.73v-2.72h1.38m.63-.61H41.1v4h2.64Z" transform="translate(-39.85 -10.81)"/></g></g></g></g></g></g><g id="Group_449" data-name="Group 449"><g id="Group_442" data-name="Group 442"><g id="Group_411" data-name="Group 411"><g id="Group_410" data-name="Group 410"><g id="Group_409" data-name="Group 409"><g id="Group_408" data-name="Group 408"><g id="Group_407" data-name="Group 407"><g id="Group_406" data-name="Group 406"><path id="Path_20102" data-name="Path 20102" class="cls-2" d="M159.82,193.5l7.64,12.36h-15l-7.64-12.36h15m.35-.61H143.71l.58.93,7.64,12.35.18.3h16.46l-.57-.93-7.64-12.36-.19-.29Z" transform="translate(-39.85 -10.81)"/></g></g></g></g></g></g><g id="Group_417" data-name="Group 417"><g id="Group_416" data-name="Group 416"><g id="Group_415" data-name="Group 415"><g id="Group_414" data-name="Group 414"><g id="Group_413" data-name="Group 413"><g id="Group_412" data-name="Group 412"><path id="Path_20103" data-name="Path 20103" class="cls-2" d="M176.17,193.5l7.64,12.36h-15l-7.64-12.36h15m.36-.61H160.07l.58.93,7.64,12.35.18.3h16.46l-.57-.93-7.65-12.36-.18-.29Z" transform="translate(-39.85 -10.81)"/></g></g></g></g></g></g><g id="Group_423" data-name="Group 423"><g id="Group_422" data-name="Group 422"><g id="Group_421" data-name="Group 421"><g id="Group_420" data-name="Group 420"><g id="Group_419" data-name="Group 419"><g id="Group_418" data-name="Group 418"><path id="Path_20104" data-name="Path 20104" class="cls-2" d="M143.31,193.5,151,205.86H136l-7.64-12.36h15m.36-.61H127.21l.58.93,7.64,12.35.18.3h16.46l-.57-.93-7.65-12.36Z" transform="translate(-39.85 -10.81)"/></g></g></g></g></g></g><g id="Group_429" data-name="Group 429"><g id="Group_428" data-name="Group 428"><g id="Group_427" data-name="Group 427"><g id="Group_426" data-name="Group 426"><g id="Group_425" data-name="Group 425"><g id="Group_424" data-name="Group 424"><path id="Path_20105" data-name="Path 20105" class="cls-2" d="M151.52,180.07l7.64,12.36h-15l-7.64-12.36h15m.35-.61H135.41l.58.93,7.64,12.36.18.29h16.46l-.57-.93-7.64-12.35-.19-.3Z" transform="translate(-39.85 -10.81)"/></g></g></g></g></g></g><g id="Group_435" data-name="Group 435"><g id="Group_434" data-name="Group 434"><g id="Group_433" data-name="Group 433"><g id="Group_432" data-name="Group 432"><g id="Group_431" data-name="Group 431"><g id="Group_430" data-name="Group 430"><path id="Path_20106" data-name="Path 20106" class="cls-2" d="M167.88,180.07l7.64,12.36h-15l-7.64-12.36h15m.35-.61H151.77l.58.93L160,192.75l.18.29h16.46l-.57-.93-7.65-12.35-.18-.3Z" transform="translate(-39.85 -10.81)"/></g></g></g></g></g></g><g id="Group_441" data-name="Group 441"><g id="Group_440" data-name="Group 440"><g id="Group_439" data-name="Group 439"><g id="Group_438" data-name="Group 438"><g id="Group_437" data-name="Group 437"><g id="Group_436" data-name="Group 436"><path id="Path_20107" data-name="Path 20107" class="cls-2" d="M135,180.07l7.64,12.36h-15L120,180.07h15m.35-.61H118.91l.58.93,7.64,12.36.18.29h16.46l-.57-.93-7.65-12.35-.18-.3Z" transform="translate(-39.85 -10.81)"/></g></g></g></g></g></g></g><g id="Group_448" data-name="Group 448"><g id="Group_447" data-name="Group 447"><g id="Group_446" data-name="Group 446"><g id="Group_445" data-name="Group 445"><g id="Group_444" data-name="Group 444"><g id="Group_443" data-name="Group 443"><path id="Path_20108" data-name="Path 20108" class="cls-2" d="M122.82,188.05l1.42,2.25v14.17h9l.89,1.39h-11.3V188.05m-.63-2.16v20.58h13.07l-.6-.94-.89-1.38-.19-.29h-8.71V190.13l-.09-.15-1.42-2.25-1.17-1.84Z" transform="translate(-39.85 -10.81)"/></g></g></g></g></g></g></g><g id="Group_465" data-name="Group 465"><g id="Group_454" data-name="Group 454"><g id="Group_453" data-name="Group 453"><g id="Group_452" data-name="Group 452"><g id="Group_451" data-name="Group 451"><g id="Group_450" data-name="Group 450"><path id="Path_20109" data-name="Path 20109" class="cls-2" d="M401.27,427.88l11.17,30.61h-9.75v8.9h-3.28v-8.9H390.1l11.17-30.61m0-1.83-.59,1.63-11.17,30.61-.3.82h9.58V468h4.53v-8.9h10l-.3-.82-11.17-30.61-.59-1.63Z" transform="translate(-39.85 -10.81)"/></g></g></g></g></g><g id="Group_459" data-name="Group 459"><g id="Group_458" data-name="Group 458"><g id="Group_457" data-name="Group 457"><g id="Group_456" data-name="Group 456"><g id="Group_455" data-name="Group 455"><path id="Path_20110" data-name="Path 20110" class="cls-2" d="M376.64,432.41a13.64,13.64,0,0,1,1.62,27.21v7.77H375v-7.77a13.73,13.73,0,0,1-12.31-15.13,13.88,13.88,0,0,1,13.93-12.08m0-.62a14.25,14.25,0,0,0-2.25,28.37V468h4.5v-7.84a14.32,14.32,0,0,0,12.23-16.29A14.55,14.55,0,0,0,376.64,431.79Z" transform="translate(-39.85 -10.81)"/></g></g></g></g></g><g id="Group_464" data-name="Group 464"><g id="Group_463" data-name="Group 463"><g id="Group_462" data-name="Group 462"><g id="Group_461" data-name="Group 461"><g id="Group_460" data-name="Group 460"><path id="Path_20111" data-name="Path 20111" class="cls-2" d="M425.7,432.41a13.64,13.64,0,0,1,1.63,27.21v7.77h-3.27v-7.77a13.74,13.74,0,0,1-12.29-15.15,13.89,13.89,0,0,1,13.93-12.06m0-.62a14.25,14.25,0,0,0-2.28,28.37V468H428v-7.84a14.33,14.33,0,0,0,12.21-16.3,14.54,14.54,0,0,0-14.48-12.07Z" transform="translate(-39.85 -10.81)"/></g></g></g></g></g></g></g><g id="Group_627" data-name="Group 627"><g id="Group_537" data-name="Group 537"><g id="Group_471" data-name="Group 471"><g id="Group_470" data-name="Group 470"><g id="Group_469" data-name="Group 469"><g id="Group_468" data-name="Group 468"><g id="Group_467" data-name="Group 467"><path id="Path_20112" data-name="Path 20112" class="cls-2" d="M109.39,401.84v2.07h-.77v33.63H95.47v-32H96L96,404H87.37v1.61h.56v32H84.73V403.91H84v-2.07h25.43M100,412.71h4.26v-6.42H100v6.43m0,10.71h4.26V417H100v6.42m0,10.39h4.26v-6.43H100v6.43M110,401.22H83.33v3.3h.77v33.63h4.45V405H88v-.4h7.4v.4h-.56v33.18h14.42V404.52H110v-3.29Zm-9.43,5.68h3v5.2h-3Zm0,10.72h3v5.19h-3Zm0,10.38h3v5.2h-3Z" transform="translate(-39.85 -10.81)"/></g></g></g></g></g><g id="Group_476" data-name="Group 476"><g id="Group_475" data-name="Group 475"><g id="Group_474" data-name="Group 474"><g id="Group_473" data-name="Group 473"><g id="Group_472" data-name="Group 472"><rect id="Rectangle_164" data-name="Rectangle 164" class="cls-2" x="48.07" y="414.89" width="7.54" height="0.61"/></g></g></g></g></g><g id="Group_481" data-name="Group 481"><g id="Group_480" data-name="Group 480"><g id="Group_479" data-name="Group 479"><g id="Group_478" data-name="Group 478"><g id="Group_477" data-name="Group 477"><path id="Path_20113" data-name="Path 20113" class="cls-2" d="M89.81,422.71V426H87.92v-3.29h1.89m.63-.62H87.29v4.53h3.15Z" transform="translate(-39.85 -10.81)"/></g></g></g></g></g><g id="Group_486" data-name="Group 486"><g id="Group_485" data-name="Group 485"><g id="Group_484" data-name="Group 484"><g id="Group_483" data-name="Group 483"><g id="Group_482" data-name="Group 482"><path id="Path_20114" data-name="Path 20114" class="cls-2" d="M91.69,422.71V426H89.81v-3.29h1.88m.63-.62H89.18v4.53h3.15v-4.53Z" transform="translate(-39.85 -10.81)"/></g></g></g></g></g><g id="Group_491" data-name="Group 491"><g id="Group_490" data-name="Group 490"><g id="Group_489" data-name="Group 489"><g id="Group_488" data-name="Group 488"><g id="Group_487" data-name="Group 487"><path id="Path_20115" data-name="Path 20115" class="cls-2" d="M93.58,422.71V426H91.69v-3.29h1.89m.63-.62H91.07v4.53h3.14v-4.53Z" transform="translate(-39.85 -10.81)"/></g></g></g></g></g><g id="Group_496" data-name="Group 496"><g id="Group_495" data-name="Group 495"><g id="Group_494" data-name="Group 494"><g id="Group_493" data-name="Group 493"><g id="Group_492" data-name="Group 492"><path id="Path_20116" data-name="Path 20116" class="cls-2" d="M95.47,422.71V426H93.58v-3.29h1.89m.63-.62H93v4.53H96.1Z" transform="translate(-39.85 -10.81)"/></g></g></g></g></g><g id="Group_501" data-name="Group 501"><g id="Group_500" data-name="Group 500"><g id="Group_499" data-name="Group 499"><g id="Group_498" data-name="Group 498"><g id="Group_497" data-name="Group 497"><rect id="Rectangle_165" data-name="Rectangle 165" class="cls-2" x="48.07" y="403.22" width="7.54" height="0.61"/></g></g></g></g></g><g id="Group_506" data-name="Group 506"><g id="Group_505" data-name="Group 505"><g id="Group_504" data-name="Group 504"><g id="Group_503" data-name="Group 503"><g id="Group_502" data-name="Group 502"><path id="Path_20117" data-name="Path 20117" class="cls-2" d="M89.81,411v3.29H87.92V411h1.89m.63-.61H87.29V415h3.15Z" transform="translate(-39.85 -10.81)"/></g></g></g></g></g><g id="Group_511" data-name="Group 511"><g id="Group_510" data-name="Group 510"><g id="Group_509" data-name="Group 509"><g id="Group_508" data-name="Group 508"><g id="Group_507" data-name="Group 507"><path id="Path_20118" data-name="Path 20118" class="cls-2" d="M91.69,411v3.29H89.81V411h1.88m.63-.61H89.18V415h3.15v-4.52Z" transform="translate(-39.85 -10.81)"/></g></g></g></g></g><g id="Group_516" data-name="Group 516"><g id="Group_515" data-name="Group 515"><g id="Group_514" data-name="Group 514"><g id="Group_513" data-name="Group 513"><g id="Group_512" data-name="Group 512"><path id="Path_20119" data-name="Path 20119" class="cls-2" d="M93.58,411v3.29H91.69V411h1.89m.63-.61H91.07V415h3.14v-4.52Z" transform="translate(-39.85 -10.81)"/></g></g></g></g></g><g id="Group_521" data-name="Group 521"><g id="Group_520" data-name="Group 520"><g id="Group_519" data-name="Group 519"><g id="Group_518" data-name="Group 518"><g id="Group_517" data-name="Group 517"><path id="Path_20120" data-name="Path 20120" class="cls-2" d="M95.47,411v3.29H93.58V411h1.89m.63-.61H93V415H96.1Z" transform="translate(-39.85 -10.81)"/></g></g></g></g></g><g id="Group_526" data-name="Group 526"><g id="Group_525" data-name="Group 525"><g id="Group_524" data-name="Group 524"><g id="Group_523" data-name="Group 523"><g id="Group_522" data-name="Group 522"><path id="Path_20121" data-name="Path 20121" class="cls-2" d="M94.83,433.82v1.65H88.56v-1.65h6.27m.63-.61H87.93v2.87h7.53Z" transform="translate(-39.85 -10.81)"/></g></g></g></g></g><g id="Group_531" data-name="Group 531"><g id="Group_530" data-name="Group 530"><g id="Group_529" data-name="Group 529"><g id="Group_528" data-name="Group 528"><g id="Group_527" data-name="Group 527"><path id="Path_20122" data-name="Path 20122" class="cls-2" d="M94.83,435.85v1.69H88.56v-1.69h6.27m.63-.61H87.93v2.91h7.53v-2.91Z" transform="translate(-39.85 -10.81)"/></g></g></g></g></g><g id="Group_536" data-name="Group 536"><g id="Group_535" data-name="Group 535"><g id="Group_534" data-name="Group 534"><g id="Group_533" data-name="Group 533"><g id="Group_532" data-name="Group 532"><path id="Path_20123" data-name="Path 20123" class="cls-2" d="M114.9,401.84v2h-.77V437.5h-4.77v-3.72h2.42v-6.42h-2.42v-4h2.42V417h-2.42v-4.29h2.42v-6.43h-2.42v-2h.74v-2.4h4.8m.62-.61h-6v2.4h-.74v3.24h2.42v5.2h-2.42v5.51h2.42v5.2h-2.42V428h2.42v5.2h-2.42v4.94h6V404.48h.77v-3.25Z" transform="translate(-39.85 -10.81)"/></g></g></g></g></g></g><g id="Group_558" data-name="Group 558"><g id="Group_557" data-name="Group 557"><g id="Group_556" data-name="Group 556"><g id="Group_555" data-name="Group 555"><g id="Group_554" data-name="Group 554"><path id="Path_20127" data-name="Path 20127" class="cls-2" d="M253.26,328.16v1.1h-.57V333h.67v-2.82h14.29l6,6.89H229l6-6.89h14.06V333h.75v-3.78h-.56v-1.1h4m19.4,9.43v25.23H253.75V352.36l.43-2.06H248.3l.43,2.06v10.46H230V337.59h42.63m-7.47,9.9H269V341h-3.82v6.48m-7.92,0h3.83V341h-3.83v6.48m-7.92,0h3.83V341h-3.83v6.48m-7.92,0h3.83V341h-3.83v6.48m-7.92,0h3.83V341h-3.83v6.48m31.68,11.1H269v-6.48h-3.82v6.48m-7.92,0h3.83v-6.48h-3.83v6.48m-15.84,0h3.83v-6.48h-3.83v6.48m-7.92,0h3.83v-6.48h-3.83v6.48m19.75,1v.9h-4v-.9h4m0,1.86v.9h-4v-.9h4m.62-33.89h-5.23v2.06H234.74l-.19.22-6,6.88-.89,1h1.76v25.71h20V363h3.75v.48h20.17V337.72H275l-.89-1-6-6.88-.19-.22H253.88Zm11.94,14.07h2.57v5.26h-2.57Zm-7.92,0h2.57v5.26H257.9Zm-7.92,0h2.57v5.26H250Zm-7.92,0h2.57v5.26h-2.57Zm-7.92,0h2.57v5.26h-2.57Zm14.93,9.3h4.34l-.28,1.32V359h-3.76v-6.72l-.28-1.32Zm16.75,1.8h2.57V358h-2.57Zm-7.92,0h2.57V358H257.9Zm-15.84,0h2.57V358h-2.57Zm-7.92,0h2.57V358h-2.57Z" transform="translate(-39.85 -10.81)"/></g></g></g></g></g><g id="Group_584" data-name="Group 584"><g id="Group_563" data-name="Group 563"><g id="Group_562" data-name="Group 562"><g id="Group_561" data-name="Group 561"><g id="Group_560" data-name="Group 560"><g id="Group_559" data-name="Group 559"><path id="Path_20128" data-name="Path 20128" class="cls-2" d="M806.26,58.43v.72h-5.62v-.72h5.62m.63-.62H800v1.95h6.88Z" transform="translate(-39.85 -10.81)"/></g></g></g></g></g><g id="Group_568" data-name="Group 568"><g id="Group_567" data-name="Group 567"><g id="Group_566" data-name="Group 566"><g id="Group_565" data-name="Group 565"><g id="Group_564" data-name="Group 564"><path id="Path_20129" data-name="Path 20129" class="cls-2" d="M806.29,43.91v.72h-5.67v-.72h5.67m.63-.61H800v2h6.92v-2Z" transform="translate(-39.85 -10.81)"/></g></g></g></g></g><g id="Group_573" data-name="Group 573"><g id="Group_572" data-name="Group 572"><g id="Group_571" data-name="Group 571"><g id="Group_570" data-name="Group 570"><g id="Group_569" data-name="Group 569"><path id="Path_20130" data-name="Path 20130" class="cls-2" d="M806.29,33v.72h-5.67V33h5.67m.63-.62H800v1.95h6.92V32.38Z" transform="translate(-39.85 -10.81)"/></g></g></g></g></g><g id="Group_578" data-name="Group 578"><g id="Group_577" data-name="Group 577"><g id="Group_576" data-name="Group 576"><g id="Group_575" data-name="Group 575"><g id="Group_574" data-name="Group 574"><path id="Path_20131" data-name="Path 20131" class="cls-2" d="M810.45,22.53V59.15h-3.54V49.46a5.38,5.38,0,0,0-6.92,0v9.69H771.9V22.53h38.55M800,34.37h6.92V27.66a5.41,5.41,0,0,0-6.92,0v6.71m-8.12,0h4.42V27.66a2.56,2.56,0,0,0-3.46-.93,2.52,2.52,0,0,0-1,.93v6.71m-7.48,0h4.43V27.66a2.58,2.58,0,0,0-4.43,0v6.71m-7.92,0h4.43V27.66a2.59,2.59,0,0,0-4.43,0v6.71M800,45.29h6.92V38.58a5.41,5.41,0,0,0-6.92,0v6.71m-8.12,0h4.42V38.58a2.57,2.57,0,0,0-3.46-.93,2.39,2.39,0,0,0-1,.93v6.71m-7.49,0h4.43V38.58a2.59,2.59,0,0,0-3.47-.94,2.62,2.62,0,0,0-1,.94v6.71m-7.92,0h4.43V38.58a2.57,2.57,0,0,0-3.46-.93,2.48,2.48,0,0,0-1,.93v6.71m15.4,10.92h4.43V49.49a2.58,2.58,0,0,0-3.47-.93,2.52,2.52,0,0,0-1,.93V56.2m-7.48,0h4.43V49.49a2.59,2.59,0,0,0-3.47-.94,2.62,2.62,0,0,0-1,.94V56.2m-7.92,0h4.43V49.49a2.57,2.57,0,0,0-3.46-.93,2.48,2.48,0,0,0-1,.93V56.2m34.61-34.28H771.27V59.76h29.36v-10a4.8,4.8,0,0,1,5.66,0v10h4.79V21.92Zm-10.46,6a4.8,4.8,0,0,1,5.66,0v5.82h-5.66Zm-8.12-.08a1.9,1.9,0,0,1,2.59-.55,1.76,1.76,0,0,1,.57.55v5.9H792.5Zm-7.48,0a1.9,1.9,0,0,1,2.59-.55,1.87,1.87,0,0,1,.57.55v5.9H785Zm-7.92,0a1.9,1.9,0,0,1,2.59-.55,1.76,1.76,0,0,1,.57.55v5.9H777.1Zm23.52,11a4.85,4.85,0,0,1,5.67,0v5.82h-5.67Zm-8.12-.07a1.92,1.92,0,0,1,2.6-.56,1.76,1.76,0,0,1,.56.56v5.89H792.5v-5.9Zm-7.48,0a1.92,1.92,0,0,1,2.6-.56,1.76,1.76,0,0,1,.56.56v5.89H785v-5.9Zm-7.92,0a1.92,1.92,0,0,1,2.6-.56,1.79,1.79,0,0,1,.57.56v5.89H777.1v-5.9Zm15.4,10.91a1.91,1.91,0,0,1,2.6-.55,1.84,1.84,0,0,1,.56.55v5.9H792.5Zm-7.48,0a1.91,1.91,0,0,1,2.6-.55,1.84,1.84,0,0,1,.56.55v5.9H785Zm-7.92,0a1.91,1.91,0,0,1,2.6-.55,1.87,1.87,0,0,1,.57.55v5.9H777.1Z" transform="translate(-39.85 -10.81)"/></g></g></g></g></g><g id="Group_583" data-name="Group 583"><g id="Group_582" data-name="Group 582"><g id="Group_581" data-name="Group 581"><g id="Group_580" data-name="Group 580"><g id="Group_579" data-name="Group 579"><path id="Path_20132" data-name="Path 20132" class="cls-2" d="M810.45,20.32v1.56H771.9V20.32h38.55m.63-.61H771.27v2.78h39.81V19.72Z" transform="translate(-39.85 -10.81)"/></g></g></g></g></g></g></g><g id="Group_744" data-name="Group 744"><g id="Group_633" data-name="Group 633"><g id="Group_632" data-name="Group 632"><g id="Group_631" data-name="Group 631"><g id="Group_630" data-name="Group 630"><g id="Group_629" data-name="Group 629"><g id="Group_628" data-name="Group 628"><path id="Path_20141" data-name="Path 20141" class="cls-2" d="M222.21,227.6v32a103.45,103.45,0,0,0-17.25-7l-.67-.21-.14.67L202,264l-3.61,0-.66-13,0-.45-.45-.11a79.24,79.24,0,0,0-17.47-2.48V239.2c15.72-.11,30.37-4.11,42.48-11.6m4.46,5.29a11.21,11.21,0,0,1,5.81,15,11.47,11.47,0,0,1-5.81,5.65v-.16a11.07,11.07,0,0,0,5.62-14.85,11.29,11.29,0,0,0-5.62-5.47v-.16m0,5.93a6.25,6.25,0,0,1,0,8.78v-.23a6.11,6.11,0,0,0,0-8.32v-.23m-3.83-12.34c-13.14,8.42-28.64,12.11-43.74,12.11v10a78.18,78.18,0,0,1,18,2.46l.69,13.63,4.72,0,2.31-11.43a99.14,99.14,0,0,1,18.07,7.48V226.48ZM226,232v1.48a10.48,10.48,0,0,1,5.84,13.84A10.7,10.7,0,0,1,226,253v1.48a11.87,11.87,0,0,0,7.37-15.3A12.09,12.09,0,0,0,226,232Zm0,5.5v1.82a5.52,5.52,0,0,1,0,7.84V249a6.9,6.9,0,0,0,1.75-9.78,7,7,0,0,0-1.75-1.69Z" transform="translate(-39.85 -10.81)"/></g></g></g></g></g></g><g id="Group_639" data-name="Group 639"><g id="Group_638" data-name="Group 638"><g id="Group_637" data-name="Group 637"><g id="Group_636" data-name="Group 636"><g id="Group_635" data-name="Group 635"><g id="Group_634" data-name="Group 634"><path id="Path_20142" data-name="Path 20142" class="cls-2" d="M910,322.81H898.09v-.31a57.53,57.53,0,0,0-.91-10.4H890.3l0-.27c0-.14-1.45-13.65-6.91-17.07-3.86-2.42-3.25-4-3-4.47.64-1,2.42-1.1,3.89-.23l1.31.79c2.07,1.27,4,2.46,4.81,1.73s-1.24-10.42-2.77-14.49a3.42,3.42,0,0,1,.22-3.44,1.14,1.14,0,0,1,1.13-.35c.89.23,1.65,1.48,2.12,3.51,0,0,2.33,6.4,2.6,7.08.08.2.2.25.25.26s.18-.16.16-.52-.18-2-.35-3.64-.35-3.55-.5-5.18a3,3,0,0,1,.91-2.77,1.28,1.28,0,0,1,1.28-.1,2.78,2.78,0,0,1,1.26,2.47c.17,2.54.46,5.56.65,7.56l.14,1.48c0,.61.32.88.54.88h0c.26,0,.53-.36.53-1,0-.14,0-.54-.07-1.09-.23-3.3-.44-6.42-.4-7,0-1.39.7-2.06,1.39-2.08h0c.73,0,1.54.72,1.63,2.32h0s.38,6.74.45,7.89a.67.67,0,0,0,.55.69h0c.29,0,.49-.34.53-.88.07-1,.15-1.79.25-2.69.08-.73.16-1.51.24-2.43.11-1.21.78-2.19,1.5-2.19h0c.59,0,1.27.7,1.11,3.63,0,.44-.1,2-.2,4.22a1.81,1.81,0,0,1,1.05.56,3,3,0,0,1,.67,2.54c-.44,3.26-.76,7.32-.79,8.57a1,1,0,0,0,.47.88.38.38,0,0,0,.36.05c.17-.1.27-.41.28-.84,0-2,.76-7.81.93-8.58.18-1.22.81-1.6,1.31-1.54.8.1,1.54,1.3,1.34,3.05-.68,4-1.15,8.45-.81,9.13.34-.47.68-2.65,1-6.51.09-.95.31-1.48.67-1.62a.56.56,0,0,1,.58.13c.89.78,1.61,5.49-.66,13.28-2.38,8.17-2.34,9.27-2.18,13.35.06,1.33.12,3,.12,5.3Zm-11.29-.62h10.66c0-2.13-.07-3.69-.12-5-.17-4.16-.21-5.28,2.2-13.54,2.18-7.51,1.46-12,.89-12.62a2.58,2.58,0,0,0-.25,1.06c-.5,5.71-.91,6.89-1.48,7.09A.57.57,0,0,1,910,299c-.79-.83.27-7.61.61-9.67.17-1.48-.42-2.31-.79-2.36s-.49.29-.61,1-.9,6.57-.92,8.48c0,.86-.33,1.22-.6,1.36a1,1,0,0,1-1-.05,1.63,1.63,0,0,1-.77-1.42c0-1.27.35-5.36.79-8.64a2.47,2.47,0,0,0-.5-2,1.26,1.26,0,0,0-.62-.36c-.39,8.85-1.12,26.44-1.12,26.44v.29h-6.67a56.93,56.93,0,0,1,.9,10.09Zm-1-10.7h6.18c.1-2.32.74-17.85,1.1-26.05-.46.22-.88.82-.89,2-.05,3.54-.34,7.56-.47,8.63-.1.76-.5,1-.84,1.05a.87.87,0,0,1-.8-.77c-.14-.68-.89-5-1.25-7l-.08-.44a1.36,1.36,0,0,0-.8-1.07.58.58,0,0,0-.58.08c-.18.14-.56.64-.28,2.17.4,2.14,2.3,12.89.79,14-1.28.93-3.35-1-5.55-3.06l-.74-.69c-.87-.8-1.56-.9-1.74-.71s-.07,1.77,2.59,4.36c1.47,1.44,2.6,4,3.36,7.55Zm-6.83,0h6.18c-.73-3.38-1.79-5.77-3.16-7.11-2.92-2.85-3.23-4.59-2.6-5.22s1.59-.26,2.63.69l.74.69c1.83,1.7,3.89,3.62,4.74,3s.08-7.4-1-13.4c-.31-1.68.1-2.42.49-2.75a1.26,1.26,0,0,1,1.2-.18,2,2,0,0,1,1.21,1.54l.07.44c.37,2.06,1.12,6.34,1.25,7,0,.21.14.27.16.27h0s.19-.13.23-.51c.14-1.06.43-5,.47-8.56,0-1.69.8-2.46,1.56-2.65.09-2.24.17-3.84.19-4.28.13-2.4-.34-3-.52-3s-.79.64-.88,1.62-.16,1.71-.24,2.44c-.1.9-.18,1.74-.25,2.67s-.67,1.45-1.15,1.45h0a1.26,1.26,0,0,1-1.19-1.26c-.07-1.15-.45-7.9-.45-7.9-.06-1.14-.54-1.73-1-1.73h0c-.4,0-.79.52-.77,1.48,0,.61.25,4.87.39,6.91,0,.55.07,1,.08,1.12,0,1.09-.59,1.6-1.13,1.62h0c-.53,0-1.08-.44-1.17-1.44l-.14-1.48c-.19-2-.48-5-.66-7.57a2.24,2.24,0,0,0-.9-2,.61.61,0,0,0-.65.05,2.37,2.37,0,0,0-.63,2.22c.14,1.63.33,3.54.49,5.18s.32,3.14.35,3.65c0,.75-.31,1.09-.65,1.16a.88.88,0,0,1-1-.64c-.27-.69-2.53-6.87-2.62-7.13-.49-2.09-1.19-3-1.68-3.08a.47.47,0,0,0-.5.17,2.87,2.87,0,0,0-.1,2.81c1,2.7,4,13.82,2.61,15.14-1.14,1.07-3.19-.19-5.57-1.64l-1.31-.79c-1.29-.76-2.63-.59-3,0s.09,1.94,2.78,3.62c5.35,3.35,6.94,15.23,7.18,17.26Z" transform="translate(-39.85 -10.81)"/></g></g></g></g></g></g><g id="Group_645" data-name="Group 645"><g id="Group_644" data-name="Group 644"><g id="Group_643" data-name="Group 643"><g id="Group_642" data-name="Group 642"><g id="Group_641" data-name="Group 641"><g id="Group_640" data-name="Group 640"><path id="Path_20143" data-name="Path 20143" class="cls-2" d="M674.89,45.92H641.27V13.18h33.62v2.31l4.81-4.68,5.41,5.26L674.89,26Zm-33-.61h32.36V26.64L660.2,40.33l-14-13.67,5.41-5.27,8.63,8.4L674.26,16.1V13.79H641.9Zm5.15-18.65,13.14,12.8,14.07-13.69V17L660.2,30.67l-8.63-8.41Zm27.84-10.3v8.8l9.33-9.08-4.52-4.4Z" transform="translate(-39.85 -10.81)"/></g></g></g></g></g></g><g id="Group_650" data-name="Group 650"><g id="Group_649" data-name="Group 649"><g id="Group_648" data-name="Group 648"><g id="Group_647" data-name="Group 647"><g id="Group_646" data-name="Group 646"><path id="Path_20144" data-name="Path 20144" class="cls-2" d="M1475.77,333.41h-20v-6a1.86,1.86,0,0,0-3.72-.09v6.11h-3v-6a1.87,1.87,0,0,0-3.73,0h0v6h-3v-6a1.87,1.87,0,0,0-3.73,0h0v6h-3v-6a1.87,1.87,0,0,0-3.73,0h0v6h-3v-6a1.86,1.86,0,0,0-3.72,0h0v6H1405v-22h-1.37v-3h17.86v-.31h-1.65v-1.8h6.41v-1.17h-1l-.22-1.33,5.34-1.7c0-.31,0-.59,0-.85a9.85,9.85,0,0,1,8-9.57v-3.63l2-1.94,2.05,1.94v3.63a9.85,9.85,0,0,1,8,9.57c0,.26,0,.54,0,.85l5.33,1.7-.22,1.33h-1v1.17h6.41v1.8h-1.65v.31h17.86v3h-1.37Zm-16.49-.61h15.86v-22h1.37V309h-17.23v1.75h15.44v1.65h-15.44Zm-2.88,0h2.23l0-25.31h1.65v-.57h-39.87v.57h1.65l0,25.31h2.36v-5.41a2.49,2.49,0,0,1,5-.1v5.51h1.76v-5.41a2.49,2.49,0,0,1,5-.1v5.51h1.76v-5.41a2.49,2.49,0,0,1,5-.1v5.51h1.76v-5.41a2.49,2.49,0,0,1,5-.1v5.51h1.76v-5.41a2.49,2.49,0,0,1,5-.1v5.51Zm-50.81,0h15.86V312.44H1406v-1.65h15.46V309h-17.23v1.75h1.37Zm53.69-21h14.81v-.42h-14.81Zm-52.66,0h14.83v-.42h-14.83Zm45.92-5.51h1.35v-1.79H1455l0-.29-5.31-1.69,0-.25c0-.34.06-.68.07-1a9.24,9.24,0,0,0-7.75-9l-.26,0v-3.88l-1.42-1.35-1.41,1.35v3.88l-.26,0a9.24,9.24,0,0,0-7.75,9,8.76,8.76,0,0,0,.07,1l0,.25-5.31,1.69,0,.29h1.06v1.79h1.35V304l12.17-4.25.11,0,12.07,4.21Zm-23.72,0h23.09v-1.84l-11.55-4-11.54,4Zm44,24.39h-5V325h5Zm-4.35-.61h3.72v-4.52h-3.72Zm-1.91.61h-5V325h5Zm-4.35-.61H1466v-4.52h-3.72Zm-43.1.61h-5V325h5Zm-4.35-.61h3.72v-4.52h-3.73Zm-1.91.61h-5V325h5Zm-4.35-.61h3.72v-4.52h-3.73Zm64.33-6.48h-5V317a2.5,2.5,0,0,1,5,0Zm-4.35-.61h3.72v-6a1.86,1.86,0,0,0-3.72,0Zm-1.91.61h-5V317a2.49,2.49,0,0,1,5,0Zm-4.35-.61H1466v-6a1.86,1.86,0,0,0-3.72,0Zm-5.85.61h-5V310.79h5Zm-4.35-.61h3.73V311.4h-3.73Zm-2.38.61h-5V310.79h5Zm-4.35-.61h3.7V311.4h-3.73Zm-2.43.61H1438V310.79h4.94Zm-4.31-.61h3.68V311.4h-3.7Zm-2.39.61h-5V310.79h5Zm-4.35-.61h3.72V311.4h-3.74Zm-2.38.61h-5V310.79h5Zm-4.35-.61h3.72V311.4h-3.75Zm-5.95.61h-5V317a2.49,2.49,0,0,1,5,0Zm-4.35-.61h3.72v-6a1.86,1.86,0,0,0-3.72,0Zm-1.91.61h-5V317a2.49,2.49,0,0,1,5,0Zm-4.35-.61h3.72v-6a1.86,1.86,0,0,0-3.72,0Z" transform="translate(-39.85 -10.81)"/></g></g></g></g></g><g id="Group_743" data-name="Group 743"><g id="Group_660" data-name="Group 660"><g id="Group_659" data-name="Group 659"><g id="Group_658" data-name="Group 658"><g id="Group_657" data-name="Group 657"><g id="Group_656" data-name="Group 656"><path id="Path_20146" data-name="Path 20146" class="cls-2" d="M913.18,417.68l-.68-.66a5.12,5.12,0,0,0-2.4,0,9.4,9.4,0,0,1-1.19.12h-.27l-1-6.26.3-.06a6.4,6.4,0,0,1,1-.08h0a15.52,15.52,0,0,1,1.92.15h0a2.62,2.62,0,0,1,.63.14l-.25-1.6.75.73,0,.1Zm-4.8-6.32.8,5.13c.25,0,.53-.07.83-.11a6.7,6.7,0,0,1,2.32-.07l-.72-4.61a3.26,3.26,0,0,0-.81-.23A13.08,13.08,0,0,0,908.38,411.36Z" transform="translate(-39.85 -10.81)"/></g></g></g></g></g><g id="Group_665" data-name="Group 665"><g id="Group_664" data-name="Group 664"><g id="Group_663" data-name="Group 663"><g id="Group_662" data-name="Group 662"><g id="Group_661" data-name="Group 661"><path id="Path_20147" data-name="Path 20147" class="cls-2" d="M909.28,421.24l-.57-3.66.35,0a10.64,10.64,0,0,0,1.12-.12,9,9,0,0,1,1.37-.14,1.48,1.48,0,0,1,.75.14h0c.19.12.47.32.86.62l.1.08.35,2.3Zm.15-3.09.37,2.36,3.1-.57-.23-1.47L912,418a1.27,1.27,0,0,0-.43,0,10.71,10.71,0,0,0-1.27.13c-.25,0-.54.08-.85.11Z" transform="translate(-39.85 -10.81)"/></g></g></g></g></g><g id="Group_670" data-name="Group 670"><g id="Group_669" data-name="Group 669"><g id="Group_668" data-name="Group 668"><g id="Group_667" data-name="Group 667"><g id="Group_666" data-name="Group 666"><path id="Path_20148" data-name="Path 20148" class="cls-2" d="M912.08,410.62l-.41,0-.77-.1c-.68-.1-1.6-.22-1.95-.22a6,6,0,0,0-1,.09l-.32.06-1.5-9.63-4.56.68,1.23-7.93-9-1.33-1.08-7,.31,0,25.6-3.78.05.3,2.61,16.83-10.77,1.59Zm-3.13-1c.39,0,1.31.12,2,.22l.34.05-1.59-10.3L920.51,398,918,382.12l-24.66,3.64.92,5.9,9.19,1.35-1.2,7.71,4.35-.64,1.5,9.62A5.56,5.56,0,0,1,909,409.65Z" transform="translate(-39.85 -10.81)"/></g></g></g></g></g><g id="Group_676" data-name="Group 676"><g id="Group_675" data-name="Group 675"><g id="Group_674" data-name="Group 674"><g id="Group_673" data-name="Group 673"><g id="Group_672" data-name="Group 672"><g id="Group_671" data-name="Group 671"><path id="Path_20149" data-name="Path 20149" class="cls-2" d="M875.22,431.43l-3.08-5.52.28-.15a55,55,0,0,0,6.33-3.75,26.84,26.84,0,0,0,1.85-2.07c1.71-2,2.26-2.61,2.67-2.61h.37l-1.3,8.23-.12.07c-1.45.88-6.66,5.49-6.71,5.54ZM873,426.16l2.4,4.29c1.11-1,5-4.34,6.37-5.26l1.09-6.88c-.48.49-1.22,1.37-1.76,2a27.64,27.64,0,0,1-1.9,2.14A51.5,51.5,0,0,1,873,426.16Z" transform="translate(-39.85 -10.81)"/></g></g></g></g></g></g><g id="Group_717" data-name="Group 717"><g id="Group_681" data-name="Group 681"><g id="Group_680" data-name="Group 680"><g id="Group_679" data-name="Group 679"><g id="Group_678" data-name="Group 678"><g id="Group_677" data-name="Group 677"><path id="Path_20150" data-name="Path 20150" class="cls-2" d="M885.56,424.93a.86.86,0,0,1-.11-1.71h0l2.32-.22-.27,1.74Zm1.49-1.24-1.52.14a.24.24,0,0,0-.21.25.23.23,0,0,0,.24.23v0l1.4-.13Z" transform="translate(-39.85 -10.81)"/></g></g></g></g></g><g id="Group_686" data-name="Group 686"><g id="Group_685" data-name="Group 685"><g id="Group_684" data-name="Group 684"><g id="Group_683" data-name="Group 683"><g id="Group_682" data-name="Group 682"><path id="Path_20151" data-name="Path 20151" class="cls-2" d="M884.68,423.31a.86.86,0,0,1-.86-.76v0a.86.86,0,0,1,.77-.92l3.47-.33-.27,1.74Zm-.23-.85v0a.23.23,0,0,0,.23.21l2.55-.25.08-.49-2.66.25A.23.23,0,0,0,884.45,422.46Z" transform="translate(-39.85 -10.81)"/></g></g></g></g></g><g id="Group_691" data-name="Group 691"><g id="Group_690" data-name="Group 690"><g id="Group_689" data-name="Group 689"><g id="Group_688" data-name="Group 688"><g id="Group_687" data-name="Group 687"><path id="Path_20152" data-name="Path 20152" class="cls-2" d="M883.65,421l.32-2.1.45.52.14.15.37.27-.4.23-.18.15Z" transform="translate(-39.85 -10.81)"/></g></g></g></g></g><g id="Group_696" data-name="Group 696"><g id="Group_695" data-name="Group 695"><g id="Group_694" data-name="Group 694"><g id="Group_693" data-name="Group 693"><g id="Group_692" data-name="Group 692"><path id="Path_20153" data-name="Path 20153" class="cls-2" d="M886.85,429l-4.33-.8,1-6.52.43,1.05a.77.77,0,0,0,.67.48l.51,0-.26.43a.8.8,0,0,0-.12.45.79.79,0,0,0,.79.72h.08l1.89-.19Zm-3.62-1.29,3.1.57.46-2.94-1.19.11h0a1.41,1.41,0,0,1-1.45-1.27,1.08,1.08,0,0,1,0-.44,1.51,1.51,0,0,1-.31-.16Z" transform="translate(-39.85 -10.81)"/></g></g></g></g></g><g id="Group_701" data-name="Group 701"><g id="Group_700" data-name="Group 700"><g id="Group_699" data-name="Group 699"><g id="Group_698" data-name="Group 698"><g id="Group_697" data-name="Group 697"><path id="Path_20154" data-name="Path 20154" class="cls-2" d="M884,418.63l1.67-10.72-10.77-1.59,2.66-17.13,16.73,2.47,1.55,10,6.44-.95-1.47,9.42-10.77-1.59-1.44,9.24-3.67.35a.93.93,0,0,0-.33.12Zm-8.39-12.82,10.77,1.59-1.58,10.14h.05l3.18-.31,1.46-9.36,10.77,1.59,1.25-8-6.21.91-1.59-10.17-15.63-2.31Z" transform="translate(-39.85 -10.81)"/></g></g></g></g></g><g id="Group_706" data-name="Group 706"><g id="Group_705" data-name="Group 705"><g id="Group_704" data-name="Group 704"><g id="Group_703" data-name="Group 703"><g id="Group_702" data-name="Group 702"><path id="Path_20155" data-name="Path 20155" class="cls-2" d="M885,419.78a.85.85,0,0,1-.86-.76v0a.85.85,0,0,1,.77-.92l3.69-.36-.27,1.75Zm2.86-1.38-2.89.28a.23.23,0,0,0-.21.25v0a.24.24,0,0,0,.24.19l2.78-.26Z" transform="translate(-39.85 -10.81)"/></g></g></g></g></g><g id="Group_711" data-name="Group 711"><g id="Group_710" data-name="Group 710"><g id="Group_709" data-name="Group 709"><g id="Group_708" data-name="Group 708"><g id="Group_707" data-name="Group 707"><path id="Path_20156" data-name="Path 20156" class="cls-2" d="M883.37,422.77l.43-2.77.43,1a.68.68,0,0,0,.18.26l.33.31-.41.19a.76.76,0,0,0-.25.19Z" transform="translate(-39.85 -10.81)"/></g></g></g></g></g><g id="Group_716" data-name="Group 716"><g id="Group_715" data-name="Group 715"><g id="Group_714" data-name="Group 714"><g id="Group_713" data-name="Group 713"><g id="Group_712" data-name="Group 712"><path id="Path_20157" data-name="Path 20157" class="cls-2" d="M884.94,421.55a.86.86,0,0,1-.86-.75v0a.86.86,0,0,1,.78-.93l3.48-.33-.28,1.74Zm2.65-1.35-2.67.26a.21.21,0,0,0-.16.08.2.2,0,0,0,0,.16v0a.23.23,0,0,0,.23.21l2.57-.25Z" transform="translate(-39.85 -10.81)"/></g></g></g></g></g></g><g id="Group_722" data-name="Group 722"><g id="Group_721" data-name="Group 721"><g id="Group_720" data-name="Group 720"><g id="Group_719" data-name="Group 719"><g id="Group_718" data-name="Group 718"><path id="Path_20158" data-name="Path 20158" class="cls-2" d="M884.68,423.31a.86.86,0,0,1-.09-1.71h0l3.77-.36a.87.87,0,0,1,.86.76.85.85,0,0,1-.76.95h0Zm3.68-1.76,0,.31-3.68.35a.23.23,0,0,0-.2.25.24.24,0,0,0,.23.24l3.7-.36a.24.24,0,0,0,0-.48Z" transform="translate(-39.85 -10.81)"/></g></g></g></g></g><g id="Group_727" data-name="Group 727"><g id="Group_726" data-name="Group 726"><g id="Group_725" data-name="Group 725"><g id="Group_724" data-name="Group 724"><g id="Group_723" data-name="Group 723"><path id="Path_20159" data-name="Path 20159" class="cls-2" d="M885.56,424.93a.86.86,0,0,1-.11-1.71h0l2.61-.25a.86.86,0,0,1,.67,1.41.89.89,0,0,1-.59.3Zm2.52-1.65,0,.31-2.52.24a.24.24,0,0,0-.21.25.23.23,0,0,0,.24.23l2.54-.24a.3.3,0,0,0,.16-.08.22.22,0,0,0,0-.17.23.23,0,0,0-.23-.23Z" transform="translate(-39.85 -10.81)"/></g></g></g></g></g><g id="Group_732" data-name="Group 732"><g id="Group_731" data-name="Group 731"><g id="Group_730" data-name="Group 730"><g id="Group_729" data-name="Group 729"><g id="Group_728" data-name="Group 728"><path id="Path_20160" data-name="Path 20160" class="cls-2" d="M884.94,421.55a.87.87,0,0,1-.86-.76.83.83,0,0,1,.19-.64,1,1,0,0,1,.58-.31l3.77-.36a.86.86,0,0,1,.86.76.87.87,0,0,1-.77.95h0Zm3.68-1.76,0,.31-3.67.36a.19.19,0,0,0-.16.08.2.2,0,0,0,0,.16.24.24,0,0,0,.23.24l3.7-.36a.22.22,0,0,0,.21-.25.23.23,0,0,0-.23-.23Z" transform="translate(-39.85 -10.81)"/></g></g></g></g></g><g id="Group_737" data-name="Group 737"><g id="Group_736" data-name="Group 736"><g id="Group_735" data-name="Group 735"><g id="Group_734" data-name="Group 734"><g id="Group_733" data-name="Group 733"><path id="Path_20161" data-name="Path 20161" class="cls-2" d="M885,419.78a.86.86,0,0,1-.09-1.71l3.56-.34a.86.86,0,0,1,.09,1.71Zm3.47-1.74,0,.3-3.47.34a.23.23,0,0,0-.21.25.24.24,0,0,0,.24.23l3.5-.34a.23.23,0,0,0,.21-.25.26.26,0,0,0-.24-.23Z" transform="translate(-39.85 -10.81)"/></g></g></g></g></g><g id="Group_742" data-name="Group 742"><g id="Group_741" data-name="Group 741"><g id="Group_740" data-name="Group 740"><g id="Group_739" data-name="Group 739"><g id="Group_738" data-name="Group 738"><path id="Path_20162" data-name="Path 20162" class="cls-2" d="M918.77,422.32l-.3-.28c-.05,0-4.56-4.16-5.92-5a4.23,4.23,0,0,0-2.44-.06c-1.09.16-2.22.33-2.39-.61h0a.81.81,0,0,1,.23-.8.86.86,0,0,1-.57-.65.82.82,0,0,1,.23-.81.78.78,0,0,1-.58-.69.84.84,0,0,1,.28-.8.78.78,0,0,1-.51-.74.84.84,0,0,1,.27-.71c.64-.6,2.28-.5,3.81-.32a3.27,3.27,0,0,1,.62.14l-.2-1.31.57.32a20.45,20.45,0,0,1,2.81,2.61c.34.34.62.63.77.77a55.8,55.8,0,0,0,6,3.54l.27.14Zm-7.23-6.09a2.53,2.53,0,0,1,1.35.3,69,69,0,0,1,5.71,4.8l2.24-4a48.31,48.31,0,0,1-5.83-3.49l-.79-.79c-.61-.63-1.45-1.5-2.08-2.05l.15,1-.52-.23a3.73,3.73,0,0,0-1-.29c-1.85-.22-3-.17-3.3.15a.22.22,0,0,0-.07.22c0,.18,0,.19.15.24a.58.58,0,0,1,.4.4.57.57,0,0,1-.21.58.26.26,0,0,0-.11.29c0,.15,0,.16.18.2a.52.52,0,0,1,.27.95c-.11.12-.15.16-.12.29s.11.2.25.24a.55.55,0,0,1,.42.42.58.58,0,0,1-.22.53.25.25,0,0,0-.11.3h0c.06.32.71.25,1.68.1a9.91,9.91,0,0,1,1.53-.15Z" transform="translate(-39.85 -10.81)"/></g></g></g></g></g></g></g><g id="Group_1030" data-name="Group 1030"><g id="Group_1029" data-name="Group 1029"><g id="Group_1028" data-name="Group 1028"><g id="Group_1027" data-name="Group 1027"><g id="Group_1026" data-name="Group 1026"><g id="Group_1025" data-name="Group 1025"><g id="Group_1024" data-name="Group 1024"><g id="Group_1023" data-name="Group 1023"><path id="Path_20214" data-name="Path 20214" class="cls-2" d="M98.16,131.47V80.67l52.17,25.4Zm.63-49.81v48.82l50.13-24.41Z" transform="translate(-39.85 -10.81)"/></g></g></g></g></g></g></g></g></g><g id="Group_1553" data-name="Group 1553"><g id="Group_1129" data-name="Group 1129"><g id="Group_1044" data-name="Group 1044"><g id="Group_1043" data-name="Group 1043"><g id="Group_1042" data-name="Group 1042"><g id="Group_1041" data-name="Group 1041"><path id="Path_20217" data-name="Path 20217" class="cls-2" d="M1643.76,291.72v4.33h-4v1.07h4v5.73h-1.87V304h1.87v5.69h-4v1.13h4v5.73h-1.87v1.05h1.87v5.8h-4v1h4v5.16a7.37,7.37,0,1,1-7.48,0V291.72h7.48m.64-.64h-8.75V329.2a8,8,0,1,0,11.09,2.34,8.15,8.15,0,0,0-2.34-2.34Z" transform="translate(-39.85 -10.81)"/></g></g></g></g><g id="Group_1078" data-name="Group 1078"><g id="Group_1065" data-name="Group 1065"><g id="Group_1064" data-name="Group 1064"><g id="Group_1063" data-name="Group 1063"><g id="Group_1062" data-name="Group 1062"><path id="Path_20222" data-name="Path 20222" class="cls-2" d="M1173.16,410l3.3,9.45,7.16,0,3.31-9.47,1.25.15.84,9.49,8,3.71-.27,1.23h-8.92L1184,438l2.6,6.66-.07,0,.1.09,3.29,16.86-1.2.43-7.14-13h-3.16l-7.14,13-1.19-.45,3.8-16.86,0-.05h0l2.14-6.46-4-13.68h-8.66l-.28-1.23,7.7-3.64,1.12-9.58,1.25-.14m2,9.45-2.26-6.4-.75,6.39h3m12.58,0-.55-6.23-2.18,6.22h2.73m-3,3,2.3-1.8h-2.3v1.8m-4.65.66,2.49-2.46h-5l2.49,2.46m-4.66-.78v-1.68h-1.87l1.87,1.68m-2.38.9h1.45l-2-1.77.52,1.77m18.48,0h2.32l-3.8-1.77,1.49,1.77m-9.73,0h1.65l0-1.65-1.67,1.65m-5.09,0h1.66l-1.66-1.63v1.63m-10.49,0h1.94l1.45-1.63-3.38,1.63m3.66,0h1.81l-.45-1.54-1.36,1.54m18.31,0h1.64l-1.23-1.46-.41,1.46m-2.36,0h1l.29-1-1.31,1m-5.82,10.5,5.46-5.6,1-3.61h-13.09l1.06,3.61,5.55,5.6m-3,3.09,2.14-2.19-3.92-3.92,1.78,6.11m6,0,1.7-6-3.82,3.91,2.12,2.13m-5.61,1.45h5.2l0-.08-2.6-2.6-2.62,2.68m2.59,5.28,2.19-4h-4.38l2.19,4m1.07.71h4l-1.65-4.24-2.33,4.24m-5.65,0h3.51l-2.22-4-1.3,4m6.93,3.54h3.56l-.44-2.25h-4.36l1.24,2.25m-7.8,0h3.12l1.23-2.25H1175l-.5,2.25m4.59,0h1.74l-.87-1.59-.87,1.59m5.19,3.62h2.28l-.45-2.33H1183l1.28,2.33m-10.6,0h2l1.28-2.33h-2.7l-.53,2.33m14.14,6.43-1-5.14H1185l2.83,5.14m-15.5-.4,2.6-4.74h-1.53l-1.07,4.74m14.14-48.16-.17.49-3.16,9-6.26,0-3.15-9-.16-.48-.5,0-1.25.14-.5.06-.06.5-1.09,9.23-7.37,3.49-.46.22.11.5.28,1.22.11.5h8.7l3.82,13-2.08,6.27-.2.6.06,0-3.69,16.35-.12.54.51.2,1.19.45.52.2.26-.48,7-12.66h2.41l7,12.66.26.47.51-.18,1.2-.44.51-.18-.1-.53-3.21-16.46h0l-.08-.3v-.1l0-.22,0,0-2.5-6.44,3.62-12.78h8.94l.11-.5.27-1.23.11-.5-.46-.21-7.64-3.56-.81-9.12,0-.51-.51-.06-1.25-.16-.51-.06Zm-13.67,9.49.35-3,1,3Zm13.05.05.91-2.6.23,2.61h-1.14Zm-6.78,2.51H1181l-.94.93Zm-4.87,3.86h11.4l-.75,2.65-4.9,5-5-5-.77-2.64Zm3,10.44-.79-2.69,1.73,1.73Zm4.51-.95,1.64-1.68-.73,2.6-.91-.92Zm-2.88,2.95,1.12-1.15,1.15,1.15Zm0,2.55h2.24l-1.12,2Zm3.27,3.44,1.16-2.11.82,2.11Zm-5.86,0,.58-1.81,1,1.81Zm5.89,2.56h2.77l.19,1h-2.43Zm-6.62,0h2.27l-.54,1h-2l.22-1Zm8.56,3.53h1.52l.2,1.06h-1.14Zm-9.36,0h1.13l-.58,1.06h-.79l.24-1.06Zm11.35,3.62h.23l.13.65Z" transform="translate(-39.85 -10.81)"/></g></g></g></g><g id="Group_1069" data-name="Group 1069"><g id="Group_1068" data-name="Group 1068"><g id="Group_1067" data-name="Group 1067"><g id="Group_1066" data-name="Group 1066"><path id="Path_20223" data-name="Path 20223" class="cls-2" d="M1196.18,424.92v2.82h-1.4v-2.82h1.4m.63-.63h-2.66v4.08h2.66v-4.08Z" transform="translate(-39.85 -10.81)"/></g></g></g></g><g id="Group_1073" data-name="Group 1073"><g id="Group_1072" data-name="Group 1072"><g id="Group_1071" data-name="Group 1071"><g id="Group_1070" data-name="Group 1070"><path id="Path_20224" data-name="Path 20224" class="cls-2" d="M1181,424.92v2.82h-1.39v-2.82H1181m.64-.63H1179v4.08h2.66v-4.08Z" transform="translate(-39.85 -10.81)"/></g></g></g></g><g id="Group_1077" data-name="Group 1077"><g id="Group_1076" data-name="Group 1076"><g id="Group_1075" data-name="Group 1075"><g id="Group_1074" data-name="Group 1074"><path id="Path_20225" data-name="Path 20225" class="cls-2" d="M1165.66,424.92v2.82h-1.39v-2.82h1.39m.63-.63h-2.66v4.08h2.66v-4.08Z" transform="translate(-39.85 -10.81)"/></g></g></g></g></g><g id="Group_1115" data-name="Group 1115"><g id="Group_1109" data-name="Group 1109"><g id="Group_1083" data-name="Group 1083"><g id="Group_1082" data-name="Group 1082"><g id="Group_1081" data-name="Group 1081"><g id="Group_1080" data-name="Group 1080"><g id="Group_1079" data-name="Group 1079"><path id="Path_20226" data-name="Path 20226" class="cls-2" d="M1320.89,29.43l7.69,12.78H1313.5l-7.69-12.78h15.08m.36-.63h-16.56l.58,1L1313,42.53l.18.31h16.57l-.58-1-7.69-12.77-.19-.31Z" transform="translate(-39.85 -10.81)"/></g></g></g></g></g><g id="Group_1088" data-name="Group 1088"><g id="Group_1087" data-name="Group 1087"><g id="Group_1086" data-name="Group 1086"><g id="Group_1085" data-name="Group 1085"><g id="Group_1084" data-name="Group 1084"><path id="Path_20227" data-name="Path 20227" class="cls-2" d="M1337.36,29.43l7.69,12.78H1330l-7.69-12.78h15.09m.36-.63h-16.57l.58,1,7.69,12.77.19.31h16.56l-.58-1-7.69-12.77-.18-.31Z" transform="translate(-39.85 -10.81)"/></g></g></g></g></g><g id="Group_1093" data-name="Group 1093"><g id="Group_1092" data-name="Group 1092"><g id="Group_1091" data-name="Group 1091"><g id="Group_1090" data-name="Group 1090"><g id="Group_1089" data-name="Group 1089"><path id="Path_20228" data-name="Path 20228" class="cls-2" d="M1304.29,29.43,1312,42.21h-15.09l-7.69-12.78h15.09m.36-.63h-16.57l.58,1,7.69,12.77.18.31h16.57l-.58-1-7.69-12.77-.18-.31Z" transform="translate(-39.85 -10.81)"/></g></g></g></g></g><g id="Group_1098" data-name="Group 1098"><g id="Group_1097" data-name="Group 1097"><g id="Group_1096" data-name="Group 1096"><g id="Group_1095" data-name="Group 1095"><g id="Group_1094" data-name="Group 1094"><path id="Path_20229" data-name="Path 20229" class="cls-2" d="M1312.54,15.56l7.69,12.77h-15.08l-7.69-12.77h15.08m.36-.64h-16.56l.57,1,7.69,12.78.19.3h16.56l-.58-1-7.68-12.77Z" transform="translate(-39.85 -10.81)"/></g></g></g></g></g><g id="Group_1103" data-name="Group 1103"><g id="Group_1102" data-name="Group 1102"><g id="Group_1101" data-name="Group 1101"><g id="Group_1100" data-name="Group 1100"><g id="Group_1099" data-name="Group 1099"><path id="Path_20230" data-name="Path 20230" class="cls-2" d="M1329,15.56l7.69,12.77h-15.09l-7.69-12.77H1329m.36-.64H1312.8l.58,1,7.69,12.78.18.3h16.57l-.58-1-7.69-12.77-.19-.31Z" transform="translate(-39.85 -10.81)"/></g></g></g></g></g><g id="Group_1108" data-name="Group 1108"><g id="Group_1107" data-name="Group 1107"><g id="Group_1106" data-name="Group 1106"><g id="Group_1105" data-name="Group 1105"><g id="Group_1104" data-name="Group 1104"><path id="Path_20231" data-name="Path 20231" class="cls-2" d="M1295.93,15.56l7.69,12.77h-15.08l-7.69-12.77h15.08m.36-.64h-16.57l.58,1L1288,28.66l.19.3h16.56l-.58-1-7.69-12.77-.18-.31Z" transform="translate(-39.85 -10.81)"/></g></g></g></g></g></g><g id="Group_1114" data-name="Group 1114"><g id="Group_1113" data-name="Group 1113"><g id="Group_1112" data-name="Group 1112"><g id="Group_1111" data-name="Group 1111"><g id="Group_1110" data-name="Group 1110"><path id="Path_20232" data-name="Path 20232" class="cls-2" d="M1283.66,23.8l1.43,2.33V40.77h9l.9,1.44h-11.37V23.81m-.63-2.24V42.84h13.15l-.61-1-.9-1.43-.18-.3h-8.77V26l-.09-.16-1.43-2.32-1.18-1.9Z" transform="translate(-39.85 -10.81)"/></g></g></g></g></g></g></g></g><g id="Group_1782" data-name="Group 1782"><g id="Group_1657" data-name="Group 1657"><g id="Group_1612" data-name="Group 1612"><g id="Group_1609" data-name="Group 1609"><g id="Group_1608" data-name="Group 1608"><path id="Path_20342" data-name="Path 20342" class="cls-2" d="M1913.87,177.35l-.78,2.13v34.71h-24V179.48l-.77-2.13h25.56m-9.49,11.23h4.29v-6.64h-4.29v6.64m-10.19,0h4.29v-6.64h-4.29v6.64m-1.9,9.81h7.58V193l.56-1.67h-8.69l.55,1.67v5.39m12.09,1.24h4.28V193h-4.28v6.63m-5.9,2.16h.9v-2.41h-.9v2.41m-1.9,0h.9v-2.41h-.9v2.41m-1.9,0h.9v-2.41h-.9v2.41m-1.9,0h.9v-2.41h-.9v2.41m-.5,1h0v7h7.59v-7h-7.58m12.08,7.58h4.28v-6.64h-4.28v6.64m-12.09,1.14h7.59v-.71h-7.59v.71m0,1.7h7.59v-.71h-7.59v.71m22.49-36.49h-27.36l.31.85.73,2v35.23h25.28V179.59l.73-2,.31-.85Zm-9.75,5.86h3v5.37h-3Zm-10.19,0h3v5.37h-3Zm-2.21,9.38h6.94l-.28.85,0,.1v4.85h-6.32V192.9l0-.1-.28-.85Zm12.4,1.68h3V199h-3Zm-12.09,9.78h6.32v5.75h-6.32v-5.75Zm12.09.94h3v5.37h-3Z" transform="translate(-39.85 -10.81)"/></g></g><g id="Group_1611" data-name="Group 1611"><g id="Group_1610" data-name="Group 1610"><path id="Path_20343" data-name="Path 20343" class="cls-2" d="M1919.09,177.35l-.77,2.09v34.71h-4.79v-3.83H1916v-6.64h-2.43v-4.09H1916V193h-2.43v-4.42H1916V181.9h-2.43v-2.08l.74-2.47h4.82m.91-.64h-6.2l-.14.45-.74,2.48,0,.09v2.8h2.44v5.37h-2.44v5.69h2.44V199h-2.44v5.35h2.44v5.37h-2.44v5.1H1919V179.55l.73-2,.32-.85Z" transform="translate(-39.85 -10.81)"/></g></g></g><g id="Group_1627" data-name="Group 1627"><g id="Group_1614" data-name="Group 1614"><g id="Group_1613" data-name="Group 1613"><path id="Path_20344" data-name="Path 20344" class="cls-2" d="M1877.63,441.36v1.24h-8.34v-1.24h8.34m.63-.64h-9.6v2.51h9.6Z" transform="translate(-39.85 -10.81)"/></g></g><g id="Group_1616" data-name="Group 1616"><g id="Group_1615" data-name="Group 1615"><path id="Path_20345" data-name="Path 20345" class="cls-2" d="M1868.3,433v7.33h-14.54V433h14.54m.64-.63h-15.82V441h15.82Z" transform="translate(-39.85 -10.81)"/></g></g><g id="Group_1618" data-name="Group 1618"><g id="Group_1617" data-name="Group 1617"><path id="Path_20346" data-name="Path 20346" class="cls-2" d="M1877.63,433v7.33h-8.34V433h8.34m.63-.63h-9.6V441h9.6Z" transform="translate(-39.85 -10.81)"/></g></g><g id="Group_1620" data-name="Group 1620"><g id="Group_1619" data-name="Group 1619"><path id="Path_20347" data-name="Path 20347" class="cls-2" d="M1877.63,395.69v36.36h-38.74V402h20.7v-6.34h18m-7.7,7.9h4.27v-4.27h-4.27v4.27m-6.9,0h4.27v-4.27H1863v4.27m6.9,6.4h4.27v-4.27h-4.27V410m-6.9,0h4.27v-4.27H1863V410m-6.9,0h4.27v-4.27h-4.27V410m-6.9,0h4.27v-4.27h-4.27V410m-6.9,0h4.27v-4.27h-4.27V410m27.6,6.4h4.27v-4.27h-4.27v4.27m-6.9,0h4.27v-4.27H1863v4.27m-6.9,0h4.27v-4.27h-4.27v4.27m-6.9,0h4.27v-4.27h-4.27v4.27m-6.9,0h4.27v-4.27h-4.27v4.27m27.6,6.39h4.27v-4.27h-4.27v4.27m-6.9,0h4.27v-4.27H1863v4.27m-6.9,0h4.27v-4.27h-4.27v4.27m-6.9,0h4.27v-4.27h-4.27v4.27m-6.9,0h4.27v-4.27h-4.27v4.27m27.6,6.4h4.27v-4.27h-4.27v4.26m-6.9,0h4.27V424.9H1863v4.27m-6.9,0h4.27V424.9h-4.27v4.27m-6.9,0h4.27V424.9h-4.27v4.27m-6.9,0h4.27V424.9h-4.27v4.27m35.93-34.12H1859v6.34h-20.7v31.29h40V395.05Zm-7.7,4.9h3v3h-3Zm-6.9,0h3v3h-3Zm6.9,6.4h3v3h-3Zm-6.9,0h3v3h-3Zm-6.9,0h3v3h-3Zm-6.9,0h3v3h-3Zm-6.9,0h3v3h-3Zm27.6,6.39h3v3h-3Zm-6.9,0h3v3h-3Zm-6.9,0h3v3h-3Zm-6.9,0h3v3h-3Zm-6.9,0h3v3h-3Zm27.6,6.4h3v3h-3Zm-6.9,0h3v3h-3Zm-6.9,0h3v3h-3Zm-6.9,0h3v3h-3Zm-6.9,0h3v3h-3Zm27.6,6.4h3v3h-3Zm-6.9,0h3v3h-3Zm-6.9,0h3v3h-3Zm-6.9,0h3v3h-3Zm-6.9,0h3v3h-3Z" transform="translate(-39.85 -10.81)"/></g></g><g id="Group_1622" data-name="Group 1622"><g id="Group_1621" data-name="Group 1621"><path id="Path_20348" data-name="Path 20348" class="cls-2" d="M1852.76,433v7.33h-13.87V433h13.87m.64-.63h-15.14V441h15.14Z" transform="translate(-39.85 -10.81)"/></g></g><g id="Group_1624" data-name="Group 1624"><g id="Group_1623" data-name="Group 1623"><path id="Path_20349" data-name="Path 20349" class="cls-2" d="M1852.76,441.36v1.24h-13.87v-1.24h13.87m.64-.64h-15.14v2.51h15.14Z" transform="translate(-39.85 -10.81)"/></g></g><g id="Group_1626" data-name="Group 1626"><g id="Group_1625" data-name="Group 1625"><path id="Path_20350" data-name="Path 20350" class="cls-2" d="M1868.3,441.36v1.24h-14.54v-1.24h14.54m.64-.64h-15.82v2.51h15.82Z" transform="translate(-39.85 -10.81)"/></g></g></g><g id="Group_1631" data-name="Group 1631"><g id="Group_1630" data-name="Group 1630"><path id="Path_20352" data-name="Path 20352" class="cls-2" d="M1643.67,148.88V150h-.56v3.9h.66V151h14.37l6.06,7.11h-44.9l6.06-7.11h14.14v2.91h.75V150h-.57v-1.14h4m19.5,9.74v26h-19V173.87l.43-2.13h-5.9l.43,2.13v10.79h-18.8v-26h42.85m-7.52,10.22h3.85v-6.7h-3.85v6.7m-8,0h3.85v-6.7h-3.85v6.7m-8,0h3.85v-6.7h-3.85v6.7m-8,0h3.84v-6.7h-3.84v6.7m-8,0h3.84v-6.7h-3.84v6.7m31.83,11.44h3.85v-6.69h-3.85v6.69m-8,0h3.85v-6.69h-3.85v6.69m-15.91,0h3.84v-6.69h-3.84v6.69m-8,0h3.84v-6.69h-3.84v6.69m19.84,1v.92h-4.05v-.92h4.05m0,1.92v.93h-4.05v-.93h4.05m.63-35H1639v2.13h-14l-.19.23-6.06,7.1-.89,1h1.77v26.53h20.07v-.5h3.77v.5h20.27V158.75h1.77l-.89-1-6.06-7.11-.19-.22H1644.3v-2.13Zm12,14.52h2.58v5.43h-2.58v-5.42Zm-8,0h2.58v5.43h-2.58v-5.42Zm-8,0H1643v5.43h-2.58v-5.42Zm-8,0H1635v5.43h-2.58v-5.42Zm-8,0H1627v5.43h-2.58v-5.42Zm15,9.59h4.35l-.28,1.37v6.94h-3.77v-6.93l-.28-1.37Zm16.83,1.87h2.58v5.42h-2.58v-5.42Zm-8,0h2.58v5.42h-2.58v-5.42Zm-15.92,0H1635v5.42h-2.58v-5.42Zm-8,0H1627v5.42h-2.58v-5.42Z" transform="translate(-39.85 -10.81)"/></g></g><g id="Group_1638" data-name="Group 1638"><g id="Group_1633" data-name="Group 1633"><g id="Group_1632" data-name="Group 1632"><path id="Path_20353" data-name="Path 20353" class="cls-2" d="M974.54,155.75v1.6H952.12v-1.6h22.42m.64-.64h-23.7V158h23.7Z" transform="translate(-39.85 -10.81)"/></g></g><g id="Group_1635" data-name="Group 1635"><g id="Group_1634" data-name="Group 1634"><path id="Path_20354" data-name="Path 20354" class="cls-2" d="M951.36,154.41l.07,24.6H937l-.07-24.6h14.45m-5.82,11.71h4.07v-7.86h-4.07v7.86m-6.61,0H943v-7.86h-4.07v7.86m6.61,10.28h4.07v-7.85h-4.07v7.85m-6.61,0H943v-7.85h-4.07v7.85M952,153.77H936.27v.63l.08,24.61v.63h15.71V179L952,154.4v-.63Zm-5.81,5.12H949v6.59h-2.8Zm-6.61,0h2.8v6.59h-2.8Zm6.61,10.29H949v6.59h-2.8Zm-6.61,0h2.8v6.59h-2.8Z" transform="translate(-39.85 -10.81)"/></g></g><g id="Group_1637" data-name="Group 1637"><g id="Group_1636" data-name="Group 1636"><path id="Path_20355" data-name="Path 20355" class="cls-2" d="M978.78,162.8v32.68H943.34V184.53h13.08l-.06-21.73h22.42m-6.53,8.08h3v-6h-3v6m-4,0h3v-6h-3v6m-6.7,0h3v-6h-3v6m-4,0h3v-6h-3v6m14.65,10.29h3v-6h-3v6m-4,0h3v-6h-3v6m-6.7,0h3v-6h-3v6m-4,0h3v-6h-3v6m10.67,11.58h7v-7.27h-7v7.27m-10.67,0h7v-7.27h-7v7.27m-10.71,0h7v-7.27h-7v7.27m21.38,1.73h7v-.74h-7v.74m-10.67,0h7v-.74h-7v.74m-10.71,0h7v-.74h-7v.74m32.52-32.32H955.72v.64l.06,21.1H942.7v12.21h36.71v-34Zm-6.53,3.3h1.72v4.79h-1.72Zm-4,0h1.71v4.79h-1.71Zm-6.7,0h1.71v4.79h-1.71Zm-4,0H960v4.79h-1.72Zm14.65,10.29h1.72v4.78h-1.72Zm-4,0h1.71v4.78h-1.71Zm-6.7,0h1.71v4.78h-1.71Zm-4,0H960v4.78h-1.72Zm10.68,10.36h5.69v6h-5.69Zm-10.68,0h5.69v6h-5.69Zm-10.71,0h5.69v6h-5.69Z" transform="translate(-39.85 -10.81)"/></g></g></g><g id="Group_1651" data-name="Group 1651"><g id="Group_1640" data-name="Group 1640"><g id="Group_1639" data-name="Group 1639"><path id="Path_20356" data-name="Path 20356" class="cls-2" d="M1289.16,142v5.84h-7.35V142h7.35m.63-.64h-8.61v7.11h8.61Z" transform="translate(-39.85 -10.81)"/></g></g><g id="Group_1642" data-name="Group 1642"><g id="Group_1641" data-name="Group 1641"><path id="Path_20357" data-name="Path 20357" class="cls-2" d="M1278.8,140.28a1.93,1.93,0,0,1,2,1.9v5.7h-3.93v-5.59a1.92,1.92,0,0,1,1.83-2h.14m0-.64a2.54,2.54,0,0,0-2.61,2.47,1.09,1.09,0,0,0,0,.18v6.22h5.19v-6.22a2.58,2.58,0,0,0-2.49-2.65h-.1Z" transform="translate(-39.85 -10.81)"/></g></g><g id="Group_1644" data-name="Group 1644"><g id="Group_1643" data-name="Group 1643"><path id="Path_20358" data-name="Path 20358" class="cls-2" d="M1275.78,142v5.84h-7.35V142h7.35m.64-.64h-8.62v7.11h8.62Z" transform="translate(-39.85 -10.81)"/></g></g><g id="Group_1646" data-name="Group 1646"><g id="Group_1645" data-name="Group 1645"><path id="Path_20359" data-name="Path 20359" class="cls-2" d="M1289.16,140.4v.86h-7.35v-.86h7.35m.63-.63h-8.61v2.12h8.61Z" transform="translate(-39.85 -10.81)"/></g></g><g id="Group_1648" data-name="Group 1648"><g id="Group_1647" data-name="Group 1647"><path id="Path_20360" data-name="Path 20360" class="cls-2" d="M1275.78,140.4v.86h-7.35v-.86h7.35m.64-.63h-8.62v2.12h8.62Z" transform="translate(-39.85 -10.81)"/></g></g><g id="Group_1650" data-name="Group 1650"><g id="Group_1649" data-name="Group 1649"><path id="Path_20361" data-name="Path 20361" class="cls-2" d="M1289.32,96.61v43h-20.89V96.61h20.89m-3.89,5.81h2.4V99h-2.4v3.38m-3.88,0h2.4V99h-2.4v3.38m-3.87,0h2.4V99h-2.4v3.38m-3.88,0h2.4V99h-2.4v3.38m-3.87,0h2.4V99h-2.4v3.38m15.5,5.06h2.4V104.1h-2.4v3.38m-3.88,0h2.4V104.1h-2.4v3.38m-3.87,0h2.4V104.1h-2.4v3.38m-3.88,0h2.4V104.1h-2.4v3.38m-3.87,0h2.4V104.1h-2.4v3.38m15.5,5.06h2.4v-3.38h-2.4v3.38m-3.88,0h2.4v-3.38h-2.4v3.38m-3.87,0h2.4v-3.38h-2.4v3.38m-3.88,0h2.4v-3.38h-2.4v3.38m-3.87,0h2.4v-3.38h-2.4v3.38m15.5,5h2.4v-3.37h-2.4v3.37m-3.88,0h2.4v-3.37h-2.4v3.37m-3.87,0h2.4v-3.37h-2.4v3.37m-3.88,0h2.4v-3.37h-2.4v3.37m-3.87,0h2.4v-3.37h-2.4v3.37m15.5,5.06h2.4v-3.38h-2.4v3.38m-3.88,0h2.4v-3.38h-2.4v3.38m-3.87,0h2.4v-3.38h-2.4v3.38m-3.88,0h2.4v-3.38h-2.4v3.38m-3.87,0h2.4v-3.38h-2.4v3.38m15.5,5.06h2.4v-3.37h-2.4v3.37m-3.88,0h2.4v-3.37h-2.4v3.37m-3.87,0h2.4v-3.37h-2.4v3.37m-3.88,0h2.4v-3.37h-2.4v3.37m-3.87,0h2.4v-3.37h-2.4v3.37m15.5,5.06h2.4v-3.38h-2.4v3.38m-3.88,0h2.4v-3.38h-2.4v3.38m-3.87,0h2.4v-3.38h-2.4v3.38m-3.88,0h2.4v-3.38h-2.4v3.38m-3.87,0h2.4v-3.38h-2.4v3.38m15.5,5.06h2.4v-3.38h-2.4v3.38m-3.88,0h2.4v-3.38h-2.4v3.38m-3.87,0h2.4v-3.38h-2.4v3.38m-3.88,0h2.4v-3.38h-2.4v3.38m-3.87,0h2.4v-3.38h-2.4v3.38M1290,96H1267.8V140.2H1290Zm-3.89,3.7h1.13v2.11h-1.13Zm-3.88,0h1.14v2.11h-1.14Zm-3.87,0h1.13v2.11h-1.13V99.68Zm-3.87,0h1.13v2.11h-1.13Zm-3.88,0h1.13v2.11h-1.13Zm15.5,5.06h1.13v2.11h-1.13v-2.11Zm-3.87,0h1.13v2.11h-1.13v-2.11Zm-3.88,0h1.13v2.11h-1.13v-2.11Zm-3.87,0h1.13v2.11h-1.13v-2.11Zm-3.88,0h1.13v2.11h-1.13v-2.11Zm15.5,5.05h1.13v2.12h-1.13Zm-3.87,0h1.13v2.12h-1.13Zm-3.88,0h1.13v2.12h-1.13v-2.12Zm-3.87,0h1.13v2.12h-1.13Zm-3.88,0h1.13v2.12h-1.13Zm15.5,5.06h1.13V117h-1.13Zm-3.87,0h1.13V117h-1.13Zm-3.88,0h1.14V117h-1.14v-2.11Zm-3.87,0h1.13V117h-1.13Zm-3.88,0h1.13V117h-1.13Zm15.5,5.06h1.13V122h-1.13Zm-3.87,0h1.13V122h-1.13Zm-3.88,0h1.14V122h-1.14v-2.11Zm-3.87,0h1.13V122h-1.13Zm-3.88,0h1.14V122h-1.14Zm15.5,5.06h1.14v2.11h-1.14Zm-3.87,0h1.13v2.11h-1.13Zm-3.88,0h1.14v2.11h-1.14V125Zm-3.87,0h1.13v2.11h-1.13Zm-3.88,0h1.14v2.11h-1.14Zm15.5,5.06h1.14v2.11h-1.14V130Zm-3.87,0h1.13v2.11h-1.13V130Zm-3.88,0h1.14v2.11h-1.14V130Zm-3.87,0h1.13v2.11h-1.13V130Zm-3.87,0h1.13v2.11h-1.13V130Zm15.5,5.05h1.13v2.12h-1.13Zm-3.88,0h1.13v2.12h-1.13Zm-3.87,0h1.13v2.12h-1.14v-2.12Zm-3.88,0h1.13v2.12h-1.13Zm-3.87,0h1.13v2.12h-1.13Z" transform="translate(-39.85 -10.81)"/></g></g></g><g id="Group_1656" data-name="Group 1656"><g id="Group_1653" data-name="Group 1653"><g id="Group_1652" data-name="Group 1652"><path id="Path_20362" data-name="Path 20362" class="cls-2" d="M1330.93,200.7l15.68,16.08v26h-31.36v-26l15.68-16.08m2,16.08h1.81v-6.69H1333v6.69m-3.46,0h2.85v-6.69h-2.85v6.69m-2.42,0h1.8v-6.69h-1.8v6.69M1340.71,227h1.76v-6.69h-1.76V227m-3.51,0h2.85v-6.69h-2.85V227m-2.42,0h1.76v-6.69h-1.76V227m-12.68-1.78h3.14v-3.13h-3.14v3.13M1320.32,240H1327V229.43h-6.69V240m20.39-1.91h1.76v-6.69h-1.76v6.69m-3.51,0h2.85v-6.69h-2.85v6.69m-2.42,0h1.76v-6.69h-1.76v6.69m-14.45,3.83H1327v-1h-6.69v1m10.6-42.1-.45.47-15.68,16.07-.18.19v26.93h32.63V216.52l-.18-.18-15.68-16.08-.46-.46Zm2.68,10.93h.54v5.43h-.54v-5.43Zm-3.47,0h1.59v5.43h-1.59v-5.43Zm-2.42,0h.54v5.43h-.54v-5.43Zm13.62,10.22h.5v5.42h-.5Zm-3.51,0h1.59v5.42h-1.59Zm-2.42,0h.5v5.42h-.5Zm-12.67,1.77h1.86v1.87h-1.86v-1.86Zm-1.78,7.35h5.42v9.27H1321Zm20.38,1.94h.5v5.43h-.5Zm-3.51,0h1.59v5.43h-1.59Zm-2.42,0h.5v5.43h-.5Z" transform="translate(-39.85 -10.81)"/></g></g><g id="Group_1655" data-name="Group 1655"><g id="Group_1654" data-name="Group 1654"><path id="Path_20363" data-name="Path 20363" class="cls-2" d="M1309.32,219.69l3.87,3.69v18.34h-11.57v-14.5l7.7-7.53m-5.68,19.19h5.13V228.35h-5.13v10.54m7.59-1.92h2v-6.69h-2V237m-7.59,3.84h5.13v-1h-5.13v1m5.68-22-.44.43-7.7,7.52-.19.18v15.41h12.83V223.1l-.2-.18-3.87-3.69-.44-.42Zm-5,10.16h3.86v9.27h-3.86V229Zm7.59,1.94h.69v5.42h-.69Z" transform="translate(-39.85 -10.81)"/></g></g></g></g><g id="Group_1732" data-name="Group 1732"><g id="Group_1705" data-name="Group 1705"><g id="Group_1704" data-name="Group 1704"><path id="Path_20379" data-name="Path 20379" class="cls-2" d="M1810.39,44.11c2.48,0,3.68,1.13,2.3,3-2.41,3.27-11.47,5.09-10.81,5.75a.79.79,0,0,0,.52.12c1.77,0,7.2-1.82,9.49-2.93a12.73,12.73,0,0,1-11,6.51h-.45c-3.41,3.47,1.45,9.67,1.45,9.67.78-.49,1.56-.92,2.34-1.33,4.14-11.47,16.09-12.42,16.21-12.43s-10.79,1.78-15,11.83a14,14,0,0,1,5.37-1.57,2.36,2.36,0,0,1,1.69.54c1.07,1.07.47,3.89-1,7.07,10.06-4.23,11.82-15,11.82-15s-1,12.07-12.42,16.21c-.41.78-.85,1.57-1.33,2.35,0,0,3.84,2.42,7,2.42a3.68,3.68,0,0,0,2.7-1,12.69,12.69,0,0,1,6.5-11.48c-1.26,2.61-3.64,9.18-2.81,10a.21.21,0,0,0,.1,0c.9,0,3.1-9.62,5.65-10.85a2.23,2.23,0,0,1,1-.24c2,0,2.82,3.73.07,9.57a13.39,13.39,0,0,1-12.82,7.95A26.21,26.21,0,0,1,1806.53,78a31.44,31.44,0,0,1-3.86,2.94,14.76,14.76,0,0,1,1.18,8.21l-.91-.13a13.75,13.75,0,0,0-1-7.54l-1.67,1.16h0a11.84,11.84,0,0,1,.74,6.23l-.9-.14a10.94,10.94,0,0,0-.62-5.55,69.63,69.63,0,0,0-7.53,5.71s2.73,6.43-.8,6.48c-.42-.41.56-1.25-.17-2a.69.69,0,0,0-.51-.24c-.36,0-.69.28-1,.28a.6.6,0,0,1-.45-.21c-.67-.66.61-1.2-.16-2a.82.82,0,0,0-.56-.26c-.36,0-.69.29-1,.29a.56.56,0,0,1-.4-.19c-.64-.64.74-1.07-.17-2a1,1,0,0,0-.68-.34c-.39,0-.7.31-1,.31a.41.41,0,0,1-.3-.14c-.54-.54.66-1.16-.16-2a.86.86,0,0,0-.6-.29c-.38,0-.7.29-1,.29a.51.51,0,0,1-.37-.16c-.6-.6.6-1.21-.17-2a1.06,1.06,0,0,0-.82-.34,6.3,6.3,0,0,0-1,.21.12.12,0,0,1-.1,0c.12-1.39,1.15-1.82,2.35-1.82a12.53,12.53,0,0,1,4.12,1,71.16,71.16,0,0,0,5.72-7.54,11.33,11.33,0,0,0-3.95-.73,10.67,10.67,0,0,0-1.6.12l-.14-.9a11.37,11.37,0,0,1,1.75-.14,12.32,12.32,0,0,1,4.48.88h0c.4-.57.78-1.14,1.16-1.68a13.82,13.82,0,0,0-7.55-1l-.13-.91a14.78,14.78,0,0,1,8.22,1.18,31.44,31.44,0,0,1,2.94-3.86s-7.45-15.09,5.6-23.1a16.4,16.4,0,0,1,7-2m-2.66,22.82a1.16,1.16,0,1,0-.82-.34,1.13,1.13,0,0,0,.82.34m2.39,2.39a1.16,1.16,0,1,0-1.16-1.15,1.13,1.13,0,0,0,.34.81,1.15,1.15,0,0,0,.82.34m.27-25.84a17.12,17.12,0,0,0-7.33,2.06c-12.18,7.48-7.15,21-6.06,23.52a39.52,39.52,0,0,0-2.41,3.21,15.49,15.49,0,0,0-8.08-1l-.63.09.09.63.13.91.09.62.63-.09a13.25,13.25,0,0,1,6.48.71l-.43.62a12.41,12.41,0,0,0-6.08-.6l-.63.1.1.62.13.91.1.63.63-.1a9.51,9.51,0,0,1,1.51-.12,10.4,10.4,0,0,1,2.94.43,69.54,69.54,0,0,1-4.87,6.46,12,12,0,0,0-4-.9c-2.4,0-2.9,1.5-3,2.39l0,.3.21.21a.72.72,0,0,0,.55.22,1.84,1.84,0,0,0,.52-.1,2.35,2.35,0,0,1,.54-.11.49.49,0,0,1,.37.16c.11.11.11.11,0,.43a1.33,1.33,0,0,0,.18,1.55,1.16,1.16,0,0,0,.82.35,1.68,1.68,0,0,0,.72-.19,1.42,1.42,0,0,1,.29-.1s.1.06.15.1.16.16,0,.5a1.25,1.25,0,0,0,.16,1.48,1,1,0,0,0,.75.33,1.67,1.67,0,0,0,.7-.2.91.91,0,0,1,.3-.11.39.39,0,0,1,.23.15c.17.17.17.17,0,.43a1.21,1.21,0,0,0,.14,1.55,1.19,1.19,0,0,0,.85.37,1.65,1.65,0,0,0,.73-.19,1.66,1.66,0,0,1,.29-.1.27.27,0,0,1,.11.08.36.36,0,0,1,.07.1.82.82,0,0,1-.1.26,1.32,1.32,0,0,0,.19,1.62,1.24,1.24,0,0,0,.9.4,1.93,1.93,0,0,0,.74-.19l.27-.1.07.06c.12.12.14.19,0,.62a1.27,1.27,0,0,0,.16,1.36l.19.19h.27a2.24,2.24,0,0,0,2-1c1.06-1.63,0-4.79-.43-6a72.78,72.78,0,0,1,6.46-4.87,10.3,10.3,0,0,1,.32,4.45l-.1.63.63.09.9.14.63.09.09-.62a12.44,12.44,0,0,0-.6-6.08l.62-.43a13.23,13.23,0,0,1,.71,6.48l-.09.63.63.09.91.13.62.09.09-.63a15.4,15.4,0,0,0-1-8.08,40.16,40.16,0,0,0,3.22-2.4A26.59,26.59,0,0,0,1816.81,81a14.06,14.06,0,0,0,13.39-8.3c1.89-4,2.35-7.62,1.21-9.41a2.14,2.14,0,0,0-1.85-1.07,2.75,2.75,0,0,0-1.22.3c-1.64.79-2.89,3.86-4.34,7.79l-.36,1a46.18,46.18,0,0,1,2.6-7.11l.94-2-1.85,1.14a13.35,13.35,0,0,0-6.8,11.74,3.26,3.26,0,0,1-2.07.63c-2.24,0-5-1.38-6.09-2,.29-.49.59-1,.9-1.61,11.73-4.39,12.6-16.56,12.61-16.68l-1.26-.14c0,.1-1.64,9.41-9.95,13.83.85-2.19,1.52-4.93.23-6.23a2.9,2.9,0,0,0-2.14-.72,11.92,11.92,0,0,0-4.08,1c4.42-8.31,13.72-9.94,13.82-10l-.13-1.26c-.13,0-12.35,1-16.69,12.61-.61.32-1.15.63-1.66.93-1-1.39-3.52-5.63-1.35-8.18h.18a13.26,13.26,0,0,0,11.58-6.81l1.13-1.85-2,1a38.11,38.11,0,0,1-3.88,1.53c2.18-.91,4.39-2.07,5.46-3.53a2.43,2.43,0,0,0,.52-2.64c-.45-.89-1.63-1.38-3.32-1.38Zm-2.66,22.81a.52.52,0,1,1,.52-.52.56.56,0,0,1-.15.37A.53.53,0,0,1,1807.74,66.28Zm2.39,2.4a.52.52,0,0,1-.52-.53.52.52,0,0,1,.52-.52.53.53,0,0,1,0,1.05Z" transform="translate(-39.85 -10.81)"/></g></g></g></g><g id="Group_1814" data-name="Group 1814"><g id="Group_1813" data-name="Group 1813"><g id="Group_1812" data-name="Group 1812"><g id="Group_1811" data-name="Group 1811"><g id="Group_1810" data-name="Group 1810"><g id="Group_1809" data-name="Group 1809"><path id="Path_20418" data-name="Path 20418" class="cls-2" d="M1713.74,346.61h-34v-34h34V315l4.87-4.87,5.47,5.47-10.34,10.34Zm-33.37-.64h32.73V326.58l-14.22,14.23-14.2-14.21,5.47-5.47,8.73,8.73,14.23-14.23v-2.4h-32.74Zm5.2-19.37,13.3,13.3,14.23-14.23v-9.14l-14.23,14.23-8.73-8.73Zm28.17-10.7V325l9.44-9.43-4.57-4.57Z" transform="translate(-39.85 -10.81)"/></g></g></g></g></g></g></g></svg>